<mxfile host="65bd71144e">
    <diagram id="KWWdXN1kM9YnO_RNINIv" name="Page-1">
        <mxGraphModel dx="818" dy="647" grid="0" gridSize="10" guides="1" tooltips="1" connect="1" arrows="1" fold="1" page="1" pageScale="1" pageWidth="850" pageHeight="1100" background="#ffffff" math="0" shadow="0">
            <root>
                <mxCell id="0"/>
                <mxCell id="1" parent="0"/>
                <mxCell id="2" value="" style="whiteSpace=wrap;html=1;aspect=fixed;fillColor=none;strokeColor=#000000;" vertex="1" parent="1">
                    <mxGeometry x="209" y="151" width="467" height="467" as="geometry"/>
                </mxCell>
                <mxCell id="3" value="&lt;font color=&quot;#000000&quot;&gt;www.markiecegivens.com&lt;/font&gt;" style="text;strokeColor=none;align=center;fillColor=none;html=1;verticalAlign=middle;whiteSpace=wrap;rounded=0;" vertex="1" parent="1">
                    <mxGeometry x="24" y="386" width="141" height="28" as="geometry"/>
                </mxCell>
                <mxCell id="4" value="&lt;font style=&quot;font-size: 12px;&quot; color=&quot;#ffffff&quot;&gt;Route53&lt;/font&gt;" style="text;html=1;align=center;verticalAlign=middle;whiteSpace=wrap;rounded=0;" vertex="1" parent="1">
                    <mxGeometry x="262.25" y="433.5" width="60" height="29" as="geometry"/>
                </mxCell>
                <mxCell id="5" value="&lt;font style=&quot;font-size: 12px;&quot;&gt;Amazon S3 Bucket&lt;/font&gt;" style="text;html=1;align=center;verticalAlign=middle;whiteSpace=wrap;rounded=0;fontColor=#000000;" vertex="1" parent="1">
                    <mxGeometry x="543" y="434.25" width="112" height="25.5" as="geometry"/>
                </mxCell>
                <mxCell id="6" value="" style="shape=image;verticalLabelPosition=bottom;labelBackgroundColor=default;verticalAlign=top;aspect=fixed;imageAspect=0;image=data:image/png,iVBORw0KGgoAAAANSUhEUgAAACgAAAAoCAIAAAADnC86AAACNUlEQVRYCe2Wz08TQRTH+aPWRTlIjAjR7FJiQIXS6EEPJISEC+HATWM8cIGzUYk1aUJjpYYSwYB6IIQDhBAOmEy7tI1AddnZ2drK7uysISXDZmex7bILkjR5h7dvfnze+85k9jUBTrgQa7oQKuCEBvjclG9IDTjBVJFFiI+GCzJ7gi5SW4Sw8zxH0te6yKHOLg8efLV2sGXhXwe+mawQ3ai1Yqk97Jft3H5YB5hN0HMk3RzyGaxMxQ9exqomdAQ2apa66nZSRwRDhCGSboWrTOY7/QTDdx9gNAFjSeXNdPBgXsz2DOyPjcNo4qjW9v6dO49MFcG37/fHxrM9A4AXXZI4e8UouUAMQ/v0VZ54lQ8PVRj5yLA8+Vqb/0YwVqdn3cEYs/E6HhCpI3K4DWAs6ayMF9V46s/Wd6mtjwUAXiRnBANOyLTeK61uaLOLdoA2t1RaWc9c77YHT3xfwIATsl1PHI8+/ilnQ49PSI4mjhct02RH65C6snhv9EVxaTnXO1he2yyvbeYeDBa/rOyNPGe3Po5c8QkMowk99wPLSuHpROHZJJYVPb+rTMUDB2upRTQzL93srZCktj708bMaT/0T7PKfrVvqUwGOo7V9WublApuoSNugdMtdwAlEN2iEdczib4cqri3NuUjt1ktVB6ebQ9QcpdT46bFirKhENyp2mtSu7RxNyyOYrvfs/Pdgzw09KZWpKpkb9+mFN1VE49RxuVx0LFCnAQ5UXvvmDantagTq/wWNdbPGu4bMdwAAAABJRU5ErkJggg==;" vertex="1" parent="1">
                    <mxGeometry x="337" y="220" width="60.5" height="60.5" as="geometry"/>
                </mxCell>
                <mxCell id="7" value="" style="shape=image;verticalLabelPosition=bottom;labelBackgroundColor=default;verticalAlign=top;aspect=fixed;imageAspect=0;image=data:image/png,iVBORw0KGgoAAAANSUhEUgAAACgAAAAoCAIAAAADnC86AAAELUlEQVRYCe1Yi09TZxT3P7yFBdQNN6PNItuImxqnYUybGDOXeytFq7PyEIqUPnA+UILOqdRHMcMKLMrU0FJFXeVhgfIomN/y4+Lt7cfX3hrjiIkJuTmc75zzO+d855zvwDpVwZr8rFsTVFXBJ+D/LfMfSap9exAJYrgP0+OYn8HsFKbHMPwXbvnQ9uO7dUdxEdvQ5cLEKMZGkIwhPYmQA7VlcJWjoRLBn3H3DCaf4+UTXDoM1VaUB9bADZV48QijQ2jfS4uaDVeO499h1G9DYgCZeX7rtyF+n/Tkc8Tuwb3JGtsCOOTA3DSu1YtxaCUY6UdPM4PuaSHdvpc50Gy448fUqxUvC5RqIeBADTJz6FTl7mfm4FrPo7oNFDNjdDiQfo3Tu3OYZoFCA6ShErMphPbnVY5HcfM0jmzkNx4VxUIOpJKFci6PWLNh9CH+PCma072OBNF9FCe2IhbFfJrfE1slknf8vAKtRHKUN+JLtQSW1mfYy8J2V+SYu+rhBQvJpPdDOPeLyNfFZBHbMP4U/p8kCv5qNu6xr8Sjhz241SYyVYWoiQEJXx5x226MP5NLj/QjuE9y5LFzmBz7UjxyltLRpiqRLweOBNkSRt48dl5VZo7fk19n+YaATvR3I+yVnEYC6O2Q8CWpTgygw5EVZb+2sHP0fhXwjF9bvmcZa6vG1vlfkRjMWjPkJcCpJPouoL+bM7mpirHm61fDik6MJeDdIWJ4d3CwC5LyVL9ZYqo7VQRqCBmPItyKurf9evgz3O9C4zcSW30XcOOUyD/6BRYXRKYceHEBRz7Pinrs7NSFt/1aW0Y/0pP45yaat2fFVAXnD+FxJIfDubaRukVFPD0uWlyt5irnAJ+ZwG0fnKUrdlt+YIsLwk3f8U0TmPKIE4M4ezBHNBYVJ4Zu6PhmJiMeZViqwvH54HqOoqpw6A73iUw58N0zfO0NH90Vy5e0qlx1Ac2Ge518jw15gRCsGaeSqj5Vhamx7Ixt3cVBZihICa0E5nb32LPyqWTRA0RVOCuMVvZX4+nfWUNSYFXhIhD2sgvCXtK6WKBGcuv6kSRiVeEdv3i0UjVNVVx68uEZ/NXt7izFqzguOuW6cmDNxihv+6jj3iS+8waYmdAjrtvAZtOf52uNXIPMMmZaDqzjvX65ssHMTOC3LXlN6OY8duItzPIp9Njx+wHuTObLNqPKq9qQ8O6k8tmDbJLLbgtgdXnbqi1jfUSCXH18ewqp5I1Yh/dXc/SPDnF5NhySEoEaFr9WgsE/uHK37rKQtwBmzivwpBdLGdZ5vj1GVTAUpnPJGIujodIC1SLV5sguOvHsAV/13hDvr3k755SrnLcY2sfcLi0StcslX5jMpnTaOmKzTuO3xHgcIcZ8mht8Krlc/+0f6E+YD/Bfg3eL2Bz9e9KfgN8zgcWrr1mq/wMpME3GERMIFQAAAABJRU5ErkJggg==;" vertex="1" parent="1">
                    <mxGeometry x="416.25" y="374.75" width="60.5" height="60.5" as="geometry"/>
                </mxCell>
                <mxCell id="8" value="" style="shape=image;verticalLabelPosition=bottom;labelBackgroundColor=default;verticalAlign=top;aspect=fixed;imageAspect=0;image=data:image/png,iVBORw0KGgoAAAANSUhEUgAAACgAAAAoCAIAAAADnC86AAAESklEQVRYCe2W7U9aVxzH+1dQTaMxi5rULenSNDHdXLLFV+0bli17xdJt6as1y/pidV3AqoPYtXVasrppsNtyr+AtPuAVkN0ygU4sIIgWFS+gIgqKPEgvcPECPrClJKSRe440adYla3JfnPv9fb+/zzmHnHs4wUc4r+Q58UqofITzGvyv7fx/e6s7Rs4NGq+YyD53YCJMeWgmktlLHR4eZPZSNBMJUx53YMJE9g0ar3SMnCtxz2ArFmI1hF20HVuimciCT6mxtaI6nhhvaJfXtcmqBGhZm6yqXV4nxhtQHU9ja13wKWkmsh1bIuwiIVYDnwEQPGa5nkrvzK0OSQiuAC2DdylUBWiZhODOrg6m0jtjlusFvXjADjbMi/2R2a7R88WBEpWu0fMbEbthXgzys4PT2eStoTOgTIn6D4NvpbNJkJkdHEtu2JZlN/pPgWLH6jf6T027kVhyA+RkB69sTYYodyS+gpubRFgtKMyqC7Ea3HwtEl8OUe6VrUlWD/CTaXWjY5Zvu1WNDq+CZqIb4ZkpZ+/I46sSgtupqBdhtS3SCgFa1iKtEGG1nYp6CcEdnvp6ytm7HrbRTNThVXSrGnFzk9WNvhiYmBEanb/kM81oea/m4ritZdqNrAaN0YQ3sRvK7NHPzjGd2A1FE97VoHHajYzbWno1F5vR8nxwcvFnwi56MfDAo8vO9XFQpkR9cV098OgyyMz+G3erGoMxJyjDRzjisfdmlmXdqkaIZyu2CDGwg4VYdWaPhjQ1k/dzuVwgOgc56+lsUohVg5qwg/kIJ5WOtcvrQLGu0Xcsrt//WrxHM1HnhqaP+PCIs11+mslQR8TnX4Fgf2S2R3PheSvruFVaiZuvhSlPMObEzU3fD7yRt/VoLuRyOV/Ichd/lzUIBDu8CrnxS9ZMsShATv6q/XjBp2QylH0F+037ydDUV/NruNLyXSq9c//hR8URINgwf3di7nZxAK7clL+ptjb7I7MHh3ubO45R8zdTzp61kLk4BQSPPL5qX3lQHChReeIdmV0dNJF9i+tqqf6z4hQQLCG4vpClOFCishYySwguxAwE3xo6E08FIUl4KZ4K3h56G+IBggXIyew+0yqthIRBpRZpRXaf+acDyAC8JPKBMOUR4w2QMKgkxhvClAdUzevAFfMRDunXorpP4XnWKqrjufxa1lJBhIFNSxK1tblgLX2gtgpMZB/cDwOrSsizdn82YwFrqSDCwIiO5w7oCtbSB67An6iOB/fDwEKsJrG7/cdMW5usCt6lUG2VVqqm+YndkOjBMX+YYGA+wulU1DvXx5lM3OXX6hw/9usv3VN+cGf4rBCrbkbLhVj1neGzPynf79df0j3pIP1aJhMn/Q9BF0Nhfsccp4KvXX5aavhc7+gk/drtpyRFb6aziYPD/XQ2QdGb209Jl1+rd3TJDF9AbtJCt/zgmBUfcb/E19fgl7iZ8Fb/v63+G8DxXiMK5uysAAAAAElFTkSuQmCC;" vertex="1" parent="1">
                    <mxGeometry x="571" y="374.5" width="60.5" height="60.5" as="geometry"/>
                </mxCell>
                <mxCell id="9" value="" style="shape=image;verticalLabelPosition=bottom;labelBackgroundColor=default;verticalAlign=top;aspect=fixed;imageAspect=0;image=data:image/png,iVBORw0KGgoAAAANSUhEUgAAACgAAAAoCAIAAAADnC86AAAEX0lEQVRYCe1Wa1NTVxT1H94MEFDKq5mKVeurtR2HtqPT14z2kocxIYUIkcgQVKAThmB4iAgtJeqEZ4QQLS8xYAxk8hDqjKuzvFcSkhsD6Uz9wsz5cM4+e+119z5nr3MPiQI+yjj0UVhFAQfE/1vlD0qdVmpdEab60XohveVqVXjyAL4h1KrSt1ovEKIrSrenRc5R6sk+rPiQiOB+E7QFcixTOfyjWPBy+P+EqVy2awvologQMtn3H4j7LXi5AEMJLBo8fciIC+MMuhWDp4M56Yo42YrRuDBOh4CHzoYSAvstH+LOmrGjBvENNFQnwRYNbl+EowZXD9N47RMOUeDSUcMtiybp3FBNuKMmadlTqeuPIhbGre8J++sWQou4Z8X149AVwngEN8/jkRNbcY5HTi6NR7h1/TjdQouEiALhsTDqjypzK2fs6cDSFAF6Nd6+hfMKJtyIrOGf13izjWCAFbZoODwdXL7Z5tZmkG5dVwiRLtfSFMba90NsKMbaU7iNxATG0GtKAWdcY9YwxdhrJkQU4L7GIIbiFGzKg6ScsSiwgNFXvMlt3yE4rwxOOzZpGZxH27cERl8xiKJPjkciGODtMBSzkqk5ZYtFu4rOejWBwUBW1hzE0wNytaOhXTf2A8QWDaIh8rmNmB7IlzjgQedPBMc3Ya7gpP4zLM/I0mEqo6JJMrLiQ8vXdDBX0lkUCAx4OMk2sp6xXk1BqKsi5VZMlsab5+HtTo/lqKF+SbpWq6KzuYLARIQ13zfxkA2zI4Tda6AsS/jbFzE7jN9/YVzJ0nyWspVK8OQBBuq5OzuCIZvslkmvnLGhhBVrPMmI0RCaz8r4hmq21rAdG6uyqHX+DK8Lz2dhO/X+U84RolcTHt+gfGayZr1cQzbMDBIwaOV7kIn0utBjSNqH7RhpSS79o5QwUYDvftaklTMOzqP9Bx5bLIym96mIAo0uPUf4Oayfo+UbFqDrV6z/vUuWbacI1Bag48esGqBMvJ2A5VPYTuPlYjIPUcBvGnRrmY31GO2mMqrpYCOaz+1yEwUCbacZZDuRviXVT5k4vgFjKexfUfEz65zbokJoCfYvGSQWVo6gTBwYw51LlKHlGf5OSO9gbr53XXv1MCHL04TfuSTrdiZWmdh5GauzfOn0akzcZUdOD7DIkoxkRqF0VNBheoDOE3cJ1BVidQ7Oy/vJWBQw2UvpMZYSZq5EXx3mRigOL/y8wDt9XFfF5Qs/t+ZG6GauJMRYSviEW5k1azuJAr/3j1Z25GhbkkZbwOfd68LrKCXM2/1u4qJx54+sroqQaIhwXeH+iaV6Nn2B8R5E1rH2DI+dbA9JpExleNjJYSpjaL2aW4+76BZZJ6TxZFZKKbLyGWee4o0zFKwVHxVtrD35Z2kq5zK+ya1hO26cycG3E3mvxDsA6zEmlIiwmwetnIz3yG2947OXyb6JpaCNJ7A0ydF4Yq8ppn1NnsRpUfJYHhDnUbT8IAelzq9ueaD+BYwTWqBBIjocAAAAAElFTkSuQmCC;" vertex="1" parent="1">
                    <mxGeometry x="262" y="375" width="60.5" height="60.5" as="geometry"/>
                </mxCell>
                <mxCell id="10" value="&lt;font&gt;Amazon Cloudfront&lt;/font&gt;" style="text;html=1;align=center;verticalAlign=middle;whiteSpace=wrap;rounded=0;fontColor=#000000;" vertex="1" parent="1">
                    <mxGeometry x="393" y="433.5" width="107" height="27" as="geometry"/>
                </mxCell>
                <mxCell id="11" value="&lt;font color=&quot;#000000&quot;&gt;Amazon Certificate Manager (ACM)&lt;/font&gt;" style="text;html=1;align=center;verticalAlign=middle;whiteSpace=wrap;rounded=0;" vertex="1" parent="1">
                    <mxGeometry x="270.75" y="200" width="203" height="20" as="geometry"/>
                </mxCell>
                <mxCell id="12" value="" style="endArrow=classic;html=1;rounded=0;strokeColor=#000000;" edge="1" parent="1">
                    <mxGeometry width="50" height="50" relative="1" as="geometry">
                        <mxPoint x="326" y="400" as="sourcePoint"/>
                        <mxPoint x="414" y="400.5" as="targetPoint"/>
                        <Array as="points"/>
                    </mxGeometry>
                </mxCell>
                <mxCell id="13" value="" style="endArrow=classic;html=1;rounded=0;strokeColor=#000000;" edge="1" parent="1">
                    <mxGeometry width="50" height="50" relative="1" as="geometry">
                        <mxPoint x="480" y="400" as="sourcePoint"/>
                        <mxPoint x="568" y="400.5" as="targetPoint"/>
                        <Array as="points"/>
                    </mxGeometry>
                </mxCell>
                <mxCell id="14" value="" style="endArrow=classic;html=1;rounded=0;strokeColor=#000000;" edge="1" parent="1">
                    <mxGeometry width="50" height="50" relative="1" as="geometry">
                        <mxPoint x="337" y="249.75" as="sourcePoint"/>
                        <mxPoint x="290.75" y="369.75" as="targetPoint"/>
                        <Array as="points">
                            <mxPoint x="290.75" y="249.75"/>
                        </Array>
                    </mxGeometry>
                </mxCell>
                <mxCell id="15" value="" style="endArrow=classic;html=1;rounded=0;strokeColor=#000000;" edge="1" parent="1">
                    <mxGeometry width="50" height="50" relative="1" as="geometry">
                        <mxPoint x="397.5" y="249.75" as="sourcePoint"/>
                        <mxPoint x="444.5" y="369.75" as="targetPoint"/>
                        <Array as="points">
                            <mxPoint x="444.5" y="249.75"/>
                        </Array>
                    </mxGeometry>
                </mxCell>
                <mxCell id="16" value="" style="endArrow=classic;html=1;rounded=0;strokeColor=#000000;" edge="1" parent="1">
                    <mxGeometry width="50" height="50" relative="1" as="geometry">
                        <mxPoint x="733.5" y="515" as="sourcePoint"/>
                        <mxPoint x="632.5" y="414" as="targetPoint"/>
                        <Array as="points">
                            <mxPoint x="733.5" y="414"/>
                        </Array>
                    </mxGeometry>
                </mxCell>
                <mxCell id="17" value="" style="endArrow=classic;html=1;rounded=0;strokeColor=#000000;" edge="1" parent="1">
                    <mxGeometry width="50" height="50" relative="1" as="geometry">
                        <mxPoint x="733.5" y="280.5" as="sourcePoint"/>
                        <mxPoint x="632.5" y="389.5" as="targetPoint"/>
                        <Array as="points">
                            <mxPoint x="733.5" y="389.5"/>
                        </Array>
                    </mxGeometry>
                </mxCell>
                <mxCell id="18" value="" style="shape=image;verticalLabelPosition=bottom;labelBackgroundColor=none;verticalAlign=top;aspect=fixed;imageAspect=0;image=data:image/png,iVBORw0KGgoAAAANSUhEUgAAAQAAAAEACAIAAADTED8xAAAgAElEQVR4Aex9B3tj1bnu/aljyZLNMLQAoQcCTAbmAPNQbgiXNkDg0EOAHGAILQk1gRxICFYvVnW3x+PxruvO+71rLW3Jkka2JblgHj/D1tbW2qt8vf4fdfTf0Q78jHfg//yM13609KMdUD9HBAiVCpQKQhW2A4C9H6jOr9ofPHif7NJ6LTk8dEse8JB+RghAIBhwX/gY8GRbP9hPD3O9HRDff4I72KL+A+7/b38WCNBxroue+sf58I8L/tMN/+GKd/+se3LWPT3rPlrzn2sE7y4F354P59wwCjoHi0B2cDA/VDUn/Hot+OOi/4ws+b6ye2rWva/iPVrznmsEf1oKflgPz/stcD24aN9aw2BXhx8B7FmuB+qjleD+spdIO/Gimp5TUw2VqKrErP5LVtVUE3/xgppMu78q+b9vBN+dDzfsEPubIXTg+Xlffb0WPNvwby54sYw7WdJLTm5dckPF8urKrPtIzftqLfAM6pv/DwZKB/OpQ44ABF0vVH9aCq7NOsm6SlTURDY4lnJiaSeWduNpN55yYiknPuPE0w4+pt1jKWciE0yWgCGTJXVt3j3b8FIbLXjoILF7fvRR0A+V+mE9fKLun8g6k2UsIV5UExl/YsaNZ1yuMTbjyKqx2BhuuhMpN5YLkzXsz81F/2+rerER3N/zVY5kAocWAazQ8tNGeGvRAxzkFY5/xp1IObEZN5ZyJ9Ie/9UXcsd86wjEOBMpJ55XU3UVy6l7Sv5fVgLHIMJ+AI4o6F8I1Lnl4PaSHy/qCcdTgPiJlDORwqrxF10ytgKbAOifkT1JO/EUeEWyqu6fdRsulrofljkS2JdBDycCGBBV7y4GsbyaLAP0cdgzGugt3OP4u/4BQ4AD+Eu5sTQuErMqWVM35bxzS8GmgQvz/9GdUc+R7atXffXHRf+6rDtVx2KPpcDKwMdmsGoAt4B+95XK8mMpUARsCx4G2kAgzDr/OI+9tPvZcyoH9otDiAD2tJ5vBlMNNZH2AP1pT+BACF5XiO9xE6BjYIiQQfp6Q8H7ZCXguyy3GRsY2DVuBupPi8E1GceyOMCxcLkJw+X6wH3nV2QUaW8CAqEby0EC/HgZiGbfOLY1judFhxYBnm96UGfT7jFS/S3QoImiKAACNE5shhIC/u3409RRpAWIRqJGJ2vqzoL3w7qGDUuPR3pyUZnni7XwxoIH8Uyku2MzwrJEyOnK4rhkin9C7EHvhTS00wXsCe7E5d9ERX22gsWNZ4Ej3b2tgx82BOAh/WkpAFikRQYg1EYYPbkBhHtReWNpVyvEoiPGZtxjEIg1EEQhSSirCNNpT8QMaJnxovptzV8QcXnUrMCCYHEzvH/WS1TwdvA3Dcd6zhZ7W3jLFQnqxjLQ/mPQ+IXMpx2YBGQE8DoBevtDLDnjx/Lq3xeA53YCWyHpgN45VAjA4/lpI4zlIfmAIoKba/KGo5XTPUZ5NwdVj8ZQyLt1Yxidhb6LZwQyqDnEDFGkEmmxAnCTgnHpioxLUQFQMhpxgavzQ/XGvD+RchNVBR1XVkTAbc3KwLHoMALoKTeWhV0raZZpl5yswTzQgnhRA7BvGESzxHhBXZ11VsRRMJrF7Rn6HB4E4ME4obq54E+WcKIEVk0ODRqA6ucB+lflnDMV77V5/4Ol4OOV4MPl4K0F/9lGcLLsH8868YI4BIpKS8NGO4wCGY0qELUzEJeTNfXArDc/AlZgYS69Ed4mMg8VG5DnDt2Gkp6wr9iMWHhzwG2o7ynnzoL/RN1/Y8H/YBlLPrcUvDEfPFb1r807iQrEfXAGMhPSCGs2SEO9/r81YICdzJ7B7FBffHgQgATyjQUovjDagIYZkYDQL5b+ZFVdk3U+XA6ijs+OLV331ffr4Utz/k1Fj1QTYgCAg0ilRe02bgDpwk1WwQo+X9WSgv5fx+jb/Gj5yZsL/kQ2mCwr4JudCTkA5X6DD/G0c2zGAdBX1TUZ5/Ga/8VqsOi1+bajs9gI1BerwW1FP1kD69MClaUgolXHUpD3/ikKz1DWFZ3AHl4fEgQgWVpw1XQGvB5UGX/k4IIMcP0AQB+ueBb0oVCG8mcuOsibFwITflf3J4UExrKBCNxEAy1QQXgggom5KZaDL+nJmk93gQXfHZyx1Xebbniy7GuLVruwHkVCyGlQYLDMeFGdLPufrXTieZ8lB0q9POdPliE9duIA+Iw7WVa/LkXiJXawpP33k0OCAKRJL88BSqD7GncPJBahZCDPNcAlj2BrKGj0aAh5UTpXd8IXm8F0BpKAiB+GTEZ05YhZyZ1qqFsKXnkTCLUzt7FFxW/Oh1dk3ESFOj2RWS9KL1PQLy6eLKjFBXVm1vtRdFYuisuxA0ZXaq8tor6/BCYjmg/4pxb5SFBS4CrfrOlF2d8e6IvDgAA82vM+2D3UX3qvaMqkVJCGyni67PGoopB92cOLgu+cG55twv4DEmtQy0JJ62LGQexNWSXSzucCLtsVne0M/3vOT4hSjmgFY8gyWo21U0lMRxGc576y95+dhmxYE9ZLc5CF9BsjzuPYDPDw/lm9jZfdugPxwGFAAILLpytBsibSv6VbAjGw8eXUlTlnSYK8LGxt63isNKKUKm6GD9AEmW9R5Rb0M+4g7cG0mg0Ts+rVecN2BnslifF5X52uIIKDrmhRabRZRgg/pB1tqp8BX7ox731pdI/obAd7p36KpOTSv3cWIQvRxBRhAsJaZ9yicDY+vK3x9+HDhwEBuK0AyqoYxUn7aR6ZQRRDsoYgmd0bKKOA9bfV4Oqsm6wrSD5aX7Q6d+tiIgUf7ZmKx9AJK2n0AgXiZ3EzvD6HaUuYmpboCIhWqIOnQvhMLBu8NOcPKzSDE/j3hRAhdDqSQnQeeNngN5hqqDcWZDN7reFA3T/wCEA6tOCp6YwzAfXXAB/J/4wbL6obcp6NYNv96VhRYc1Xj9d8SOe5FuJ1eJRgTRfN4Y6St0AW1INy2mG/PR8mJSJN27LEnNWSfyjUpdxjKcDibQUvbWSey2LXgGvnBE9X4GjT5N/QFIbK3VnyeyxiwDfso8cOPAKQYn2+CmGDZhB7ZqCRYr15exFCCJ8c1t5baPtiLTyecRJViEPaOmmQ0FqHYmlIz1dn3fxFQI79rZ2Mhaf3l4J4UcVyIVX5tngeAX3IP+LKiBfVS02fsftRRcWOueMLbtTXa4FsqQ6Pw3uxLmci48fTTkUoip32jt+15z888AjAMzjbgPk/ntGaIiVmOKoyfizj1EZzWpZmz7nhqZI/VVeIOyKFtjhgzeoZd7KoJlMuY4ei2GjB6L/noMbYIBwAnKH3etiUG89ABb8q534ncZpDR2wLkRuB+kUeTkPrEqbRKZZ2kjX1MaOD7NTtzw7axYFHABpYoLSVoLRZ8k8wSsyq35TdkR6KJeevzImXKhua4FOjs5qw+3ga6vhEJvhS0k0IPBaEnqgDhWDIb9coLBoAEEXfPVXyF8USM1zCH90lzuqpBszKXI42PYmvY6qhnm6AqdrJR397sK4PNgLwAFagALixbGjTXMgB4mlnuqlenwe1jVLcoZ+QhYMv1wJKybQhtkxDJhY1PqNzzf4cUcr9UD0kBh84mwX6heha1VOsPRKUlqio38/ppVjEG/py7HZ9thrAriCqsFVC4jPOZAlhsHbVo5jA2MY8DAjw00Y4kfGPwfkFg4n+k2OLF9U/zo8cAUgLCZilzfDGvKcNssZriylJPCb4ktxMzKr3lvCLzUBRfIpnTFCnWQXwRx5G/FIBohHDksdAegnc5c0wTjEyOiWYlaH20KF+0NHgYCMAYe6zFRAqUdFaOoCoa8Fk2pkz0WljICqkyud9dXIWtnmYcQxF1wI0IcngwBsL/v2zkreQ0ajb0ptNIFo8jUy0q7LuT2LtsYrHGJbjhKIGFMQx3KIssskzblYU+iMEGMNB9HwFAe7NhWB6TsVAQVsIgHj9grou5wr89xxh6F8QJ0OlHq9Cpo/POC2ZXgQhDeKSb8mAfqPptuZPQQgJaBlonLcWPKLxSMWerltxfxnoBz4QYQLHRAr66lDERBxsDkDy84zW1VrQLzY7nNx9Jvyh6+mO6KYlii/NBUlhTcZTBhFf/ujb0rFrIiAZ6V/Czjj/WNqZqkNAuiBYNWbo77m3kkg01dAi3JhnNfQjO9gIwO14uOohOCfdcoHptO6a+t0ehbBbHHh3EdZ0gngU0KmuSJ6NdvTiW7G1819Af0M9VtMuJzKWoR9/nwEJ2W8s+NPz4uKgLMdJZpzpOfUKrQt2qX3G2sdfHQYEOFUSNk2N04iqsYwz1VQvis1k/NBDPZWw8fFyMCmVeVCRRWdatTErgj6/wr8iKSVr2tQ4BpW3K3wSAc4tI7kURi2zvaihJKzpmUNhCT3wCHDJFv6rEtJWoiYgKMQZd3pe/YFRK3tHpfjmz1dDVCXKS7qJQdEW3EfuiPTvJ+vqJWPu3Ku5k2p8vqr9wTrEQ+LMGVv+WPUwuAIOPAJ4obqpiFJQ1DUJVUKl3OkmCsJ1DT3oSvNGdJOQ9OVamERIsw8QNwplJw4Yu+frgrd7Rfu5D5z2P84jNAMZ0oYDaA9jBb6LEe3YOIc9DAhwY86DmTxyQhNS2mmqPpwg0N2fB8WJx+uIs7eplZ3QjzIkzmQR8W1RENz923c2AhHg+3WpMCC5ZnbCccm3vH/ELvadTXu7vzrwCOCG6oY8EID1f/QhMUN3fyAAIenPywHiIKSKhIWkjouY2EwnS+psQ+PAXsk/lvkQAUD+o0qwpIadPEKA7WLbKJ73QuSCdHAAWFckDvTDSMTBKN5+2TFJ+79agyCBaG0RfqLiRFccmKorSkF7jgA/rIfA23YOwAT5e44Q4LLHP4YHvFD9Mu916AAs3rbntmpC/08bIcI0sgHcSR3xGhH1t/WVpJ4kq+ocFZgxbGK3V5Bx/XMd6nsHAlAEOuIA3bZt7PculXW4Q4qXtOkAKAXuTM+rPy5IJsBeEFICUMUJj2cQVGygXzu8jK9X+y74UTwAsJBSoZ8sqq/pbd27+X+9Fk6WgABRL3s8Bbvz/YciOfjA6wBKqXskgdVG0VCogBl0Tr22R84aQuyqr24seFKbGmAtbi9emKISEuGMCUdlDJG24zO6vgv7EpCZjJO8EIH/KmZQ1pS30loshfyeh6pHVqBxHkjvdzFF3RJR0lF6Up8TbXLMBJSvC5S6p+zDRS1pOjZUG/M0STOTJanHRquoKeMlQaCCJzMIAr0y5zQlnokQ2XsbhvwNUY6OMCS7GSXYetmP/ABD3vEdDEdQ+21Nl/GIHhITl/awmt/jdckmIfSbTB146wj9jHSo+o9VpZYRo0GBAyYywjyWmEUwHNs0jROTiQB/kFAI4LC1MkuBvam6erp+5AjbAcwO9Sckis81g6mmKYdo1Eqw6VlUFhnqCy8/GKf01oKEgkpXjhbtN3mS9KTeXUScT6DUXSUwihjzOVs4YBq6ZFB74gEjcI8NB7iQF+Zkb020NqWguIiX9FWPmS9d/gC2+cTB1gEMleoSDj0xgxzcW/P+OAsYcD7fdCiOIjzYINB4GjWzfplvVWhc81G3AkU/TU07zcoMu2AxkheaALaxIQBf9FhVO+9aHECiQafn1Nt7HWayTVDv/vhhQIBPTEmsNvv6DCo2n8g40R6P3fdgSHdJC8ubYQK9VUICcUs1p2qbglh/Vc61Yj1/VXPCK9JoRqYjmloCNyQitDKQip8fjT0V/WQZ6MosNpJ/lt5IVtUnh6JrxgFHAIFdbas2AoY2ViD71p9MO/XRlITowBrSy40ApF1oubH2UCQjQKccKdzrdBh2yDd+vBBOZALkdhqOoRciH6VxpT+R9vVvO14/mo9eqK7v4mREA5F4QX0rZSmORKDR7P1goxLsSpshaL90AtVAI0GLSMPNhf+SMrHjkRwernioFSeSDGIHqMhq6Ec82WRJfbkGmCHQ21Xy46crQaIiMR1WFY7gDyL8iurarLMs+egjXREHX/JUUjprRJ0AlIWOzTi5o5RIe357dcFzWg/U8QxgHWTSKMGs44cKNqOPhiAV/IMovrqcmwmegSAkojwrNL6zKNDfbb+4ltfmgyTj7yU1rCVHiREGpq0qcsQ4wOhwgCOnNkLup9ZJNDaCjyXSzrLYF0Y3h26bNPx7B1sE4n4ESt1uUgKiR4WyKHPqlRHnxJB4f78exgtIzLfZj+L5Mp0spKQmi7P3ghh7/9Ea+t6hSASLItL+CEMq7sSlIeR/z4mHe/jwoEckSutkACToaMoSS6H/QLyA+KvDURflwCMA4ebRmlgSI4lLmgNU1SOjdFjy7Qseqjaw05aGWpHBNMhK55h7Szo73wL6VujlV06IiGiUJew0CkGvmJhxjkmviq+7iVJbx9zZHWL1awu+VBtoQ4C49Eu+f3a05cZ2Nu0d/OrAIwBp1Svz2hJqOQAuZiA031zwRmQJtaB8qoSmLKYvk4CpyW2PS3Xea3LugAIDl9NwUXgnEkFkRDsqxNBt0IuJpiQ7jR0cf/+fMNm6VaNXRCDkQzbUU4ciH1IpdUgQ4C+rUB+3lgaKZYPkyKRVAuur81KWVBpYsOgDhR9Sa6jmaV3AuUPx7QV8VqZir0sqnRax9UeptnuyPEJlwAvVDQVJtIikg+k486Z6m8rM6JCv1+4M+/6BRwAeQdqoa232Cp5cNmC/oOEeFsH0n+sIlpS+wu12T+EAx1Kozfi+RDW7IZy+A/5RWnpnEWztWEQE16hFO2kG5dHZfYOoOCzY4EbVnTCRkerCRgGQt0MAixfV38dSb29YK+ozziFBgDVfXSHup7Z64pIYmayroaTFsCQbIZj637IXnpCGqiTPLSItgZ9xkdRtbnufM+jz1e/nxKvQ7uLQhbRQcxf2eLaw9gyC7b50HNHpm/MGt2nGFfmH5uaj8uh9jmxvvgologYeKBNTCQmENpOmeq4Ji92AHKAF6AJSfdbzwKypAUq3A62EGlDQYH0q5by9ELwn7Xhfm/dfnvdfnAt+b/5eaHrPy98LTc/efHEueHnef23ef2MeP3x70Z9Kkwxr1YLrIrJRwbgu67Jy1tapItZIVrEtrCBzQ0UgRFi1xYFCrcqrX2TdITYc2Trtcd458BzAQrapD2f0RQFKkuG7i1pW3rqzGtz7wnoQqouBarphaiP8+/nwo+Xg3cXg0ZqWj0XWb9V1I4BqMJ2B2X56Xv7mpBN9E/23W38NNdWIfJSvpuVJ/ipZhXwVHdNeGxxA+96TZf9PS8EnK8H/rofFzXDNV31slFGs2Loh9s4ZXW6sE/ESFfXA2EMM7ayGfnEYEIAU68NluJBsmxYAivhiY7nwirS7KihAcCcEdGUIfqhWPJXZCL9YC99eCJ5rBg9WvdsL3pVZd1KMkvEiOsJPz6MHtS3EEhV+NIAaxTEmwcNobZ1x5E/ayuMjctbiafnDV6379knUuiP0t4tAfIX0DQBuoF55GVNChWCJJprOOjcUvN+U/Sfr/psL6Bb8nwvhgqd6lUmFXBeCQ1pG4YTqOumOAfXGikCsttRUL4/YtTJ0KO8z4GFAAIIy9GAxuUSr7tAzFc+j37Ute2+3I1TqvK9SG+EnKxA8Hq54v8x7Sel0BJCaA21OVCRnRRpbAPKk7RLA10CnhtGI/ANlkY5bQg91VpMSoDGk/fnoTWtKYpcAO1T0GV63IkxF28GTCL7wY1l45RKzaqqOVSQq6MqRSLvXZ937yt4zDf+9peBSJ7KaE26VZLiZpS2F0fHGGReFW8rqy0NRFpdgcHgQYCNQJ3KIALXdJQiI8TRyI9+S5GBC/H8uhOeWgkuW7DuL3nGh6yDqc6Cg6M+VDaT2kxMnVRZ/gtatxdErcAbSa/2jW0FznHdIoYk2mJJkFEgpK2Ap+AxxLxtorBC5K15Aqtp1Ofd0xXtxLvh4JchcDNcD3Unkq7UQuWzGsS2LlVLvaDnljie+0NKpkV4cBgSwG8TGhkw/b4GgJAbcUfRfmw9OzfpXSjPJqTqEbxRUzCHcJUZAScPGx3Bf6UekobwlA/Qm263X7ZtnNH4KAgNp9QX6xsawUujWQImKmm5CrptIe8dz7r0l//U5//SsuKKj6ocENcWL6paRORbtOY7z4jAgQKi0dPvHRR+pYZm2YvYATbFdTDchFTBSn0AgsE6SKVb8dov7PoTpXU7JCleGXYghVboQ6LCLnKLsR+cGt86+FKWWGugMu1WYHCfIDvddBxgBmE8Y3Y6/rKAOM1rDSxwyT05fS6040HLGZkZl9N3RbDs+oGpGamjOIGIeEjP5ScqNS4tpUXld9DtKo24X2I78QXGXm/KVyC346EJ0gRaBFhvHUqDZGoJNddEhsCaTgSkyHl4Uw0aZDYxqwHSq1NQX0uGPxrfRdemLHutIrw8eAnTAfahUaTN8ZzE4WXYRvC7uoTYEaNdBhwA0EYThaCJgiLEyE6BXX05Bwi5CxErMQsZIVGE1StZUsg7FFKbPrn91PIDHqvgJfjiLQSaLGDCWU7GsJM2IPkoJZ6seoqdEgces3VLx/hf2t2ZdLRuo3ths8GTD//FCuN5uWD64mHBgEKAD7v1QzWyEr84Hd5T82Aw6qaAPRQb6647/5IxJdMEoSHqRhmIMOASL1vgmZxeag/TTTabc6YxzZda9PufeWvDvLPgny9Ayz8x6j1b839b8J+r+03X/mYb/bDM4axxhZ5ves83gmQa+erLuP173H634ZyreA7PeybJ7V8m7tejfUPBOZJ3prJtMo48qKq2Ty5kw6dasrFcOsg34DGOY6SLsAPHory5/LQwNynEBTb8frXmfrATs3UQi3XFGI6Xcwxr8ACBAlLp4AvevzAW3FLxYLqQiK1qsAK6GCcPB+yIDaCcFIZE0JtCg14mnxR5PGSAbxPNCwqtQEDuhn34G6duerKn/V/frTlh3wlUfjR/dUPl9nWuDn1+oMJQbYthVX/EtTzVMrvpWYxTN9ink8tI5ILq+QrIlbLgibokQBYSHciy8KxLw0xUTRPrCkyiSJeGo5FTJtHNfxT23FMxHvAzRIxt8pXvy5P5FgA5yUtoMX573by74Gu6L6CkNezxJIO0VhlT3OkIL8biYEdIOgBBrTxahL3DczuHfiYx/KYz0mqx7ctY9UxGfWjsOaFIqkWHX59yLl4tHs26m6AUji6J37HV/aHBCdVMebUHiBtztkmnwiRfVozXv9YXgTNX7Vck/kYUJP14Ur3MDWC2hpn7ccAligjUcdcF2u3xYWoULQUtB2+NERcS2lPNwxftqLYhWIbjcrvRf5Ti+3Y8IEAV9J1RfrQUPVGDJQdfyIqJ94mKvtOUEu56WBQhe4BnhD3GhgqDo+YgFMONPZdzbCt6jNe/lecQU/OdCOO+GBOs3F3yJtW7LC7GGxcmy+k68bL5xpo7u3IgeTG/48YLkoFnjJjFBfHBs1n2XyZz0Q7URqPJm+I/z4Z+WIGudnPVP5FBpgjYfSjU2qZqiYMcGRj9iM8kxqHFJLe6JDDoCJipwIb80FxQ3W672/cwQ9hcCREF/1Vd/WgxuzntUIinnAIhhaRGrpTny6Nn0vz4mnR0YYHN1xvkv8QF9shL8dCFc8bQPqAN88xdDuMYyflTdBPSL92CqDuHHxiN1/HZ0H0lZX2yaBl6WPBupD+mg8+q53qWELgYwHnyxGr6+AH3jhpw4QHLgq/33MPqttkrRQc6gD9FPpuoQGn9T9j9fDayzeX+iwX5BgCjoz7vhy3PBVTkH6eEUddJiXhSq05Xei0AvJyc9JgisreMR+IjNuJMl1DT+ci3MX9TUvQNGOQ0bQamUurck5N/ku7SUgRlooldnW1FGHUON9COpqxOqX+bYH03WLhRBr5o20xwCPViEwi6tRZkjU3RCNeeGr8zDW2zrWXCx3HDgvNhkgQBbRE3jPZTGr2AIIBCkXDcWvHcWAybE0YHQdQKRuYz1cl8ggJUUFzz0dZzOSpv1nDQnFGuMMOVIVJahczhs+jjFUg7LekqKUmVNXSrDJfCk9DZ8WnL57B5H48DsTUKMUkgkSNZkGlblFVGK552oqM9HmZgbnc/Wa27a9zojR9oPW7M9MUGSd+82WWNbR7AoYb96c0EKlaYjxdA10XHEvBuKl0CYMGMuRATq4AlAG9iL8AcdowjL75UZ9+X5YMEUqtw/3GCPEcCC/rqPUuYa9LMB8lCNlUYskm18WTZXDkmcRGziGc9jo5NV7PVVOVRJ6eAVsIHk1PGsYyND7cF3XJBELXnhlWn8pKU6G0mDlXcflnT7PaRnfPVTdVOH1EwPEGmEtGTdNNroPVF+44bqphxajfC3Fqyx27nwqqxzQtrWI+RWjLDYdlGIhSe0kSdREiIMWXKV4PrIui/P+SsRNOjY+fF/3DMEiMo8H68E1+ag48YE9DXgbuWzoDfYVjKEuBAqwH0DrqJr8u6TDf+vq8HFQH0mFaa0I9YqDEK8J8vqH5dL5yNAPFFHu1IcsyH/fDvcpblwKuPSBN4brkZ+mnz1mo9qWejjYqy6Vk6DUzynTuQcwlyvqfL+zIZ0QzLeaz2IuLETUghxM1CfrgSP1/yrM9CepwQTxKggfNi8PUp3eA2Pyox4JLLIn74y476zqHUDqvUj36neL9gbBLCEP3Mx/HVRipvn0eqdENZNxAToA+5nIGXCmJ0Lk3V4Sa/LuWcbSASJWt+WPRRNkDqEGmdIFBnN0r/DM+dGG4twIUoXRDwxhKfdZG1/9Z9EG4sqmtCI7IFJajKR9tjU+myzXwAPl/zyHKATMRpGbtQRgRkUFliIpNhcCEBEnqz7V2edxKwE0mUCuFBsyJ2xuemZWFom9qJYDshzU85j/5u9jSzaAwTgdnuhenk+mMhKH2bU89GkvbX7PEWSfJH1oVpJ0XPIOTnniZr/3XqbLguuIrZIpdSZigfrnmhj9hhsRl8UW7ZSh0sU8c6Cb4vC6inJTOJpVGUneg8AACAASURBVF2/t3eK2dbRRn2H9BuRsCjNIuYps2lCSrBpsWyQEW24FxNwu7ZaE2abqOhuSNHt5aLWfTRxeqTqJVOwWEyWwYWEM2uJKHqasEwQtYSExYuwmZ6peLa4S6+5jXQDx4oAlt/lLoa3FjzQG8kvsQBK8yKpF/dOqD65J0h+LBucLPufrASU47k1UWnKkpPPVmCWhvxqFDUMKFZzkYKw25YR2S3mnfeWmFwmOGlMTzKOiEMZPytlMbf+3I4zzgvCTXkzhI8W5tqWpZgAF2MNFeMW6JgbV/Gv9dA2xNY7L9sVTwOy39vSrq9Di513w/9ZCn5V8CclYw7TMBoCQzB4xJovyZYiQDAFXjqVcf8s5Su7nkjHbIf+cXwIYPH7/SVE7EjnLEMSBC4tGmg6QetyGoUPpurqeNp9uqEhj7vQAfd2a/iiJU9dkYbtglKTHlzwbaqunpCYXjslO6BSasFDWzvkCVg6anQA1Omvq102hiAVgKVVYiVohrIZiXYV27ogEL82T224hbdYNeUiKSr6uQRyduAtN+GZBuWflv1H04uMn+idAcMjsNsYKvXDhfCxqp8QgxuCAo1Yq6Ujw9W1nVqCZGPZMFlTD1c9EjUmuG5r+bt5eEwIwE33QvU7aWeEVAxa1ik1Rs2aAnaI90rDgpasq+uz7h8X/UVjOiCdsJvedfH89tEqqjZEpSDAtNELz0s8Y3QcXj/ZgO6rZQkqdvIvus8XoHJQfIr+sOscOm72QteOxwZZ3dafcDKbAXryxYs6PqJFyMU6NFlStxT8iCTfGmYjUNfmdIAdQZP0At0gK+o3vQ2pdoiO1dWd8KW54MosghRjPbQ7ixIoNJRGF5zr8u6MkdO2u712Jtu9GAcCEKdXPHVXiWZmicHSMb0iVNBRpSkuItLiBYD+TTnvw+VWbImVoC67SOLbF2thomLy+owkI94cN1FVf1vFU5Yc8iKlLSHSq0uM2ZqIQo1z5Fc4Gvury87Exs3bJ5c9JCifWwpemw9emMPfa/PBuaXg+/XQeot2gAac0pdrrQp5LVDmxoow8wFrZZvZ8Fdf6V9JrEfLmIOwuZa6b37S//9R0WjZU28tBCdy4tXJhhCKSErMxoq0Jiq7aA6wwGYg3/IV48GBkSMAob/uhNfndAFNCvpWNKTHRIxuoj9l4N6/Lu9+sLxzLzr3bt1X16BsOiu3adsIXiTyAGt7dOzyyTJonuZOEREolnagC26/N7pFlRUfbrX7Z73pLGKnma4+ZeqgkFJOZd37y+655WDFRNvbn/cHuyjE3DcLFyw5mDYtpNxjCKKGqfTavMNQfi6c/56ZpcFAEyPgvCT0TGSDqYzDMM+Ojeo/nyhDWPXR9X46A11Cq2Rk+C3TkLY7AWMzKHL8mjRfGk+AyWgRgNBfccITYjnWZVbtykn4GXwi+VPIGkk5ry/41koTpSj9N73jWx4YnUSikLVYjdAhP5Z2KqZ5DOHMkE8Rkwz041TkeiLt5bfTEsLyq/M+ChhemQOXB2hmA5hl0hKsr+uj4CNtNYisrMPG9cq8b4W0AYGPj+Uv6qL+YgKysIXls9fY6+ztZSqF1Z1wMq21Z0pNlH9IJh6WEkADTmDrEVgEnnfDp+uI5E3MQijVFWWErwrtE58aOoTDYzDVUM819E939uqOmfT5OEIE4Aqabki/iYZ+w/70soUYQOaR2MxLpfFZcWC7YsbWFfLtP1yAccOa8/lSiSfFLr8RaaPthermgo/QeQP68rBYFUWlY3k5e6Jb3xi9Y4/ty7Xg6izeBc90GrmREsynC/4I95NXwL8BTEPQsvGbXpV1v5ACJIPTQk7vuYZ0GGg3iWpvVBYuvAWpbc6o0ncWGVGHt7fWTv9XRXECA646ugP2OsoNUhvh3SWoWNpMJNYF+1KNfpJ7GcUBO9QoLkaFAISAdR/VyRF9zh6gBvqxVA1nWtC8OuOy2swOxN8++3IpleTWIsDaUnGSNyjZBaiMm4EumXjO1NVqwb2oDeL3RcEVCugWsvu81D5ztimiRUGWz3ThKNMzqr+muAb+tKaewQwTVXVW6joOiAN89bIH7y9kP/Iuq/+YCFYbJeqH6hbJK2gpDKKbMensuqzW+PssdsCvomjw7lIQTzsJdsXUMzTeN/ORRdhfEwpl93PAd23rsVEhACeB6pmwqIj4YWydgH4bnpCGoeZMxaPUa8WGba2h18OkW39YMOXL7QQkpjqegljPFO/zvrouC4CLTowEiQYKVngehBDytLxQPVjxppowyDBnpU38bQd9IkDrX/ouBFXiM85UE6UIab0ZBBQ4yffFlUELGDwYWuzWVs5L3KYk8frfrYfwXrFQgCZJgEUEDjbUC4J7g6y61xF03LdDlTbD2wvCpqTfB6Zn8d+IxLEUCkt+OuJelCNBAK6ToYXaCin2R6zTRPMjUCeHlA62zQLhH+R4O3a070eOV3VCUWp9hihaOIvPAAFOinvo3UWDJDJDnoeuOlhCv5YB52ZXQOhHkUNtQm2LFbNz6HVhOSTqP2fcqSbQiWu1r+i7dGzmbQVJGaNVhxSH/4pt5zHxhKAFhoS7WiQRRJXI52xAf9+Ab+w/n+i33Ew/VE83oPJOQPTXJJJER7PrlIsk7xmXqpdFnuhQu78ePgJwv9IbIQJoo15YkDQNEDR0JlLuPyWXariEP7opnMxDUucVEUSGFrZU2xn3u/XwVpH+pTRISw5mu43ErPrHwP1A+bqzDdB+C/36UPtT/a7faoskpMQp1LgGDAwCjoSVv6+JxskAKkKYJrRSbjrjfrgcXCmSEtUPi43gjbPqN9s3eUV3vv+1heb3lyQDIRtY0LcXkEWlqfgtee2+GGTt/d+79dvhIwDfcXfZly5XwGwuycoAKIZTVCcyLvtsDkhct059kDvc6K9p5xabQ2QyYt7J+PD7ipRspX+aqykjDQ4HfNeXLCpoahNpDtAVvge5qXEAcWaJqhbYLPRcdgdO0arL1VHCMQPqxUbEHvI9EKm0k6yNXPawVO+rNRR1RSCwEX4wN6suSjWuV2muuOyCt//AkBGAZ4M4nJoxRRvaQ8hDBEheTae1DDpS6Le7sRmoG3TDZyMNG7Sk8VGfvd10WsElu+8naTN8WZgjcTrvI0cMRYG4aoNXlrju4ELvm2jt12Zdaxu1q+t6wQn/dCFEARWGErYfBIalRGQuODeqv9dk3ai7oOsrhnKTAPDt+XBC8k4pCxETtPggJRyjNuuhvNcOMmQEUAqV6W8Rw4tV/iwTgGyH4hza4z2i3nV2bbwgKLwxD2OfloLswQtMYNPlwjIHmsyTNUVBeRDOy7e8Mi+ubjF5cbQdQHyXn3B62+yJxGk/JrEnbVkNRg0TX6QYYTm+3Ie4tet4p44j6P+ROPDX1cCq4zYFSp+IBEo8MZrc62EiAIGA8gag32boSUgWi2snKuoj6vWDgFX/nRvsW76nDlWYrVZa8V5dQE0UFVhFxBvK0gaXnSkfWPHVcZSnRhQd5D2Bqq6v2O5NLQ8giim8MudYi1n/DeCsiput7NDLyGMmLutSKuOs2Iguu/D+Exj8W00+5lqCQ2v3CEUSk1czjsvBR77sk8NEAO4XosOZR4t03ogOIAEIe5JGyIk9VmUxKcT5tPa3XRDnfZo+Byc5PD926ACtjWJ++/jbBX37PGDXBI2da4/n6XPGXPgTtVZqW8+Fi/i3e+9vn8n0+cpiGlVHLUAadUXUEjgT35zvl9bTZ/w+Xw0NAbiGVR/yfUcQsta3Mv5k2hkFEvdZHr8igP5bvMIsnWu1XgthvDCUG8GqNlDisuPzgfslCEcf3pDgfuv0EhV1nzGJXnZiPJTZTW0Ibtnat05PLARowV3q3kzksu/a5QM8o8xFUQbalRaK0JOwR/t8bJfviv58aAjAmX17XoceWC1eNHoYFqbq6lmpyDD0NUTX0//67iLyuRCPsBUCjFpM8s+0yUGmSiBb9pDx3ZmE2e0tXV89yE0Qb8ntmsq6/XN8o5vAJTwjMd7RIL+tb4xJq6VflyJx59GBRn/NnSSjJiPlJLFwUdsulUOl/45PDmVGw0MAmdQfFgK0Fszo2lV6l8X8H8uFaRPtPZSpb2sQwsFfVillwqrYRRgQwjORQT7H4JyKh/H9esj6uMB8mvOGCv2kgmBcUoiXHZ8GgQM+U3VCtE3I+Fa/bEMA8T2Px/rZ59R4RsxNA6pHtpHuuaTk5g/XZzo0BOBGPxkp0WG3mIE3NxS0P7/PFoz6K5syon2NERgVZxA8L1N19ZQYHAYh//Ywzi2bIm3DMH3areu4YAbp1ACVTqI7yYU8HTmarcjPM/pFHsFRe/vfpRrA1+VgSj7WvpMxaXW1y3S8rUsbGgJw6AcqEozegb5pZALsifobXTBPFsGPuvbBFkEIKrt/CRS2ZQOhFQ9FjeZM1FMErzogePcfAQfzqKFkcS+6xq7XpE2zm5LkyaTh9hnS+TXVUG+bSOmu44zt5plIgj93DHxVjCiPVaEHD8L6BpztkBHgVAlCdoe5jZF9rMwxxKkPuEL7GF+9Kr6qVqSkAQWUMRN78+DSP0cmXr0wF0j4Q8upvHtY7zLCjA4N+v02G5VyktQE2gqfyPJ1xOselXm0B2Qh+1lJUNa+C5khTkcK3Z2eHbKKMmQEuK+sESDKZFmN59mBQ1miOzLEa4sAJ7JoJqkbTAwJAX4vCICGFO2MuwsQmzfu5KsZpNFMNdVuEAD5Bu0+CiLAXtU5jR4xz+hsE/7EtmTutMcIpVOzksoQ/c3uroeMAIguRDWeNjhA8HcVMc+7m+puf00q+LZER4tLePgiUJRo7QS+B8ANdH3djQiUlrop7S+yhnZG5nKjdrvdu/i9gaLIAYlpIVFRp8tDhqKhIQB3DblI7NMY3eIZlDa5PuvaStm72Jxd/XQzUL+QoCAdfxuZJMU2XUB3B0rwEkMtpDpaZNjhosFulOCnGt1KiJqpQgkuqhskQ2hXW7zrH7uhupFnFLECSXAKQvR+162ezW7eOTwEEO71gcABCGFUEki5KH1RUP8eLLBsN+vp9Vvi56cSpccuiB1iACCV9mZx2FUH9rqTa7eZQdsFjGHhgDjpxAya074qvrrXknmfz9ScMC5mULEntiICOTdshWkC+Vl7sYz+gw/3W06VhTl0JJzBT05veg759YNr/4NMb2gIwNmnN9DGkLO3EMYc3GRN/XbY6DvICqPP/LrEgoedENCCA4lBT9aRq4GNjv64xzUXDkcYq5G2W8CGBf0YR/AzhkoN23aEIfXEpObZc+mYG6oAzaq7R5kG0GML9W3u9jPCqVgGU5+LZJWwn82XrEfff6DtfDs0BOBLndDIGCa0WHtwGGiVDTJ7UVSQO/tDq5R+Ny8YiY0GX4RCbMsYqhQKaEoZou7Y1QFtO/vISlWnB9amiJyzm1KTJ+0DhaKc2dJXJsoQzop7w6g5VUnf0w47u0VkUGjBlHZ3UKOlPzoMEwEIZ883TXqh9baKMEczlu3XwAX3n9ywvuW7mP4HI2AEOe0u84LUkQUxu5ZP7DolLpxp9eLDH74mAOOSMdR+uINgONPmoxf5FyBDXSYEgQ/b1t510zpu8oxY0lgXNYpIkjGpUXffsDVgpdQwEYBryKCpViiO1ZY3m25tVBqrq1e2acPu2KntfuSsEAuA3Py+VJAUkRVKkJTkbC8c2lPHpTGHibcbGisAdDKzMadOZHcYDi2RcBG7SpT8y7XgABI24imXxWm4ddvd8B08T2fin5dR5F1HqRhOxVkRMz8eQYL8MBHAOjJOl7uW6tYNpCbL6q/UtMaywSTPSFURIdhGAenzpmxNYiObjvtSQypZU48MrLTwLa9KQkx8XyXEVKT9gi3MEc02lPZTlFHBAFksQ8IWdcWkHcDy9n/CvKifLkgGOaKVsP88BfxLwYw17WSXhws1I0GA/2yg3IPkmEfKLdGqJUlhsWzwLTPNh7uaLbvP4S8EUvXE9FCJSjs8db3dxu5G9sVmAj+xydyWkTtu8EXn0ayllRLJYTukrO1+JPNEeZUCOsFsKyXyP5ISqUV/szqtBpgOVAywa81K7HU3jisoiLS/uImK3PF8W1UyTEnmTEfqiMI0howAlgn8rqYprl0G0FrWg4IokgD6lZQ9s8nRHSA1lI8kzH9blV4BzPmwcCD7CwtVvtUIXoOsxEszKf7UwFYRvuvLtdDwccgbu3QMa+8EZg5nImuH8UWD7M9vJCleo3eEshIHcN8wPfsMOWSior4etr1l64QJ/dmLAv1FHUnVCqclK5ZW5DcWPPZsHjrBHBUCLHshWjHndVxQa3+5qpQ7kUU9DHZeGNDguHUHB7xz/6yUvDViJTmsttXm1LNNVDBGMzwy3JZAjFbSiVn1d0HUQcCOx/Nc00NMuHGHc+0tErtF+O75FUF2xolJ+MO2y6Kcl+47MEVI/Qu+VxN+lEaNlkVpTVIKNSer6kGJuhk6wPHI7LDfrYcJKQZOJ7q1T2h/xQxqRSYq6puBj2BAkLCPDR8BLDR/s4YDEKgiLTSyndBghuIkq7C4UwokPbAz2/0Fd7mwaYvFtls/hfafyDqBUrA9S4goYDFCKeMzjiQi7bQwVgQHyP16wnoHVpiUYsDBjgpj+aYwFlmQfjuXJoWxHqkhpsAUxhL/ml24dJqJZ9zBvYHbOix70O8sggi2+nlGVs3KNCxQN9JW5CNBACsIvTJnAMtuLvUb+Qj38AwyxW4veMz0scizrQ3t9TBp9stmDlb9pXLC0P8X5+DwKsNSTvNzy4JJoEEUbl1ttzSiL6URwQekEZDhOf2MMC3cMOZjyP1SGvGh7ZdGZJcnxpNZ6q51G6nEVhCHzHfnURoRZivL/VijV6rx/GHY0dFW3F3x1BnJHbeHggkYICHSIoRsFqVdmaJgmUav497Z/VEhgJ3NozXigDl7s0jqN4DFtMN2Se8uailjxyXR7UvtxWagrtcVgcwEBAO1aG5KZCqlnmt2VlSmfGyK4zo7KI77XEOaNxYU7EImE18iGrpYSO39GCJHIPawOO62CoUTSpY9dVWWHY4N17UKmOCz7ZMZhKA+kyV0mGxhoGDIZAnAN6zSNdHiuF+uBtdk0HpDQmZkKyLaiEaDNOTnqYxDLjSI/GkPfVsXI0QAHoYfwkWK6FYBgqheaKkOLPQZ+OrvKvkpsbqQFewG6bllfz/P8oA0RrXOODYDrYChhXxywVPTiGUI2+1C+Ak7jT7XgMww4EnYmX+5Fl7bKo8ujewl/dxioOb1tEgKS4TykAunGrD52IrZdsD+p8vpRcujt8gqGUsW/lQ2ZiRwszw6KyZpXmHcDvGi+tcwwreszFN3woer4i/PR5KHrFlCdH1suBSAic24P/LtAy6+/9b0+HaECGAFITdU95UNDjAh3fhiAQdaHEJdfCTT5NBJgR7v3aABN81mWGuAIyFkf8KqcUcYsH5zQUd0UmLRcksktmd3DTIgSukGGeB7nX9ghlk0OErW4FB7ZW4UDTJQ81lnk5m8qoYTJsQ2TcwnHwA7kuzQp3dRjipK9S8E6PuSTEmXoJTbWQ1XW+SEXwH/0UDgO6kba5GnBwDv9vZoEcDigB8iHwCK5pbFW+EPACeIkayr6Yzz2nyrF+p2hSJC/5KnjkuNFgiahswQ5WJ5dXXEps7nNwJ1g2Sjaks5fyL/Qh6tKAbhbIseWY7BFkn3VSItkuaVbpE0r7uuT2Xc+2dRs9Y2gbU/H/yc76fpkw2SZfKarktRymtz3VokSU9lHYCgjUVS3Sivrs60PT/gNKKg74Tqg+XgujySrSfQT9uchZEJgXLmOp5B3dh42mHW/w6WP+AM7WMjRwCLA0qp55uomWW7gwi4a7HEikPSaRm0cKqOthRvzAdLprNhdFvtArpecOM+XkYNiM7gZxa/r6uzkqFmt5gXf5HuwhLPYyqbiy1fjNPAge1a4rl8+xal1IqnfrBN8hrBCw1pkrcc/DCMJnl/W4UXIk5px4j1dCYg4bOmPmqPI+LEUMxvVuqZGv0bJMA0idnWkqNntBGoD5aCGwroEYF6qSZIPlqYTM5dYEBa4yQq6qqsqyMmt0VpusLBADfHgQBRHPhoBYWw0YnIbEe0WpM1A6O4Whpq3FQd7X5fbPqsU8IVDcgQEJFRUZb2C6XRBVFiecWqt1s3+dSsL33ycCraECSQFKdHxrhIt/6w/25HIaP/kwOuLjoIJwOHt66n0NJ9aWyAPbesflXsrtNuBOhKqMvoGrTB8iU27tEB4kE6VrfgqT8u+tdJW7Q4PFxa0LWKfkvQ0mwWLpephrqz6FH6HbXkY3dvTAhAHOA5ZS+GtxRgGhJzpBgBjEpg98VaYJBdmQ2n6iqRdh6r+d+vhxbyuOn2o10S7zRdeFikEk5bCmxMip+h54X9gbngD3O2yZzoZJQf+C8bZVsZ2vxue/+nKXAUjbJfmjOlWSLeDIh8sGxCtOiakMR9eE7noWtIFeQHD4xlwyvS/SxgHeiavRjCqZKFwAMbv+2HJ7yF24jBoWdrEsOeaMkqqtGQ2Y8N+occDToIIHBtmwFaX02WFFgBEslpCzPSofFZ4r7slDYT1fD8nQXvf5aCObcF+R2YwBM9t6RrYIGZWFEY5TWhCL7Zw8LN374gJlFUkrKQxMrJmKd/KZSjPN7asf03lnPOXkSVfUxYqAm3lAtndPfjPQg59/HHCxK+BY1fuwtBrbFq9Cn6bEsYZgfcr/rqk5XgZNmPZUNk3mSlFLGxH2wl/IT+Y8brPJ11mYk2uJ2t/54M/u34OICdEw9MKeT13ZyHZiyN4w2YdnADBAPKqchmTaTAyqfq6Kb6SNX7ai1kcBgHByaEumgM5Z+2Sp3W4pRyekEwoWHNV9dkJUaImEk2LddoGFxV/zXKMAG7Udu6uKeEjiQMKKDYQxyAkysXTmecBaGuLbLRPjq6CealmyAXazzT1BxY0CC6vfz1ZqD+eT58ou4fzwFP4PgXx46QLRI1+deMJkglhF80sVgeJq8HZj2aZa2brH1qo/20BwgQFYecEFmeCXGLgE2jtLLhBgQ+7h3rDQpFgYYHry0IfGIWZoon6v4/zgfrFrGUWoRR35lA05EWTxcDMyytvynD+9vrP/Koj0z2sObXMg0RJyQ6xZpQewFUr9GHfZ+z/UDYnfb72sqn5Hvi+WLMVS/Rgjv3+hxLhrUCRsBAUI00vCKjm2Ry+huB+t/18GwzuC4HdQ5x5jlkgMSFVEVZEGVa7iHZkdS4Bg5MNdSJjMMeeOMn/PYc9gYB+HoLsTUn/G3Nj+XRFVTQADKrFkMjaGA5KQmJmHe0ojxZVtdk3N/W/E9Wgo0A7X0Qkil9irQwIL5Glr7S0GD3oMfFXaSpBCOSf/kXERxiH1wTPNpDFOCr51y0/o1lQ4ZXcb30rlD3vbNg7Gg9VspxoPyIEGVNEXqfJRvrs5VgM1B/Ww3+X92/lnDfUNSb0fjaCE7CrrdQfZ4mG2ZK78eJtHe26dkSv3u4h3uJAGQFFg1mNsIHyl68qJJIC4Kwrm32xkhsyQnQgyoUowbYZj2HHuvJmroy41wlmVkaFCL8V9KdtHe9z6ZzSj9JVgOP1krGWrqQrBGWEO0zTg94G9ptvhpphKYhlcV2Em/YlAtK+1N7v5ayh46fK4NwtLaakSO58KqccyID9zm0W7RdAh+W5kuiwm09I2gjJsZOOhsck7ac8aJ6sOoxEmkPCb/djD1GAM4jKvz9+0L4YMWjdAiNkxY0LRcZddnANM3VovnJXqcFbXKSk0maHZEHkFFeRQyWXXxgdIatQMw70YKypKmAMNGqj4kxd2z+Gjtne0F55nPb/y/SDVLrvhkEGrK8RccCtSXKuMDtmB8sGynI7BuHAivIhrEc/JiQP62ebQm/PREtK7bkWIaFJyowYJwq+7RE7cbHb2c7lIt9gQBcSRQNZjYgFDEIJ55HqJbIM0ZRjshFmlaJtCqY0D3sjNw8UUHGd8UJNyzfiewilTzaN/j9io8c3Fhe11HU9FWwEVU6SuqXOY/VvjogLDLqSC75OtY5RUJPRELTfE/ktGsyLp3KsLoabN86ITdUFSf8+/ngiZrP4GT6zrTsrgeHNqXv94Z7zT2Yx8gQrxo0hNNlj8QiqgFuncn47+wjBODio/a1qhO+PBdcm0cASaIieVvCEIQMgxvYc4qy7K7XGnZT0sMr7V2ddU/Pui/NBZ+tBKmNcM3vUnCYQPbJCqreoqdGBOv0aBIt82K7R3k8R8i5PVFn7yORWKJyi4kzp/myY0qhUhcCVbgY/m01eHU+OFPxrs+BridmIUBqI0Q7Re+6pfamHARIvpgcUFoinoLoNdVQibT7u7rPvhD2fDvms7cf9x0CcDui3OACdK/wdAXphYgqLSrI5WkEVOmtN/237ZF0vbCkEUeVhwVpeg76xkTaO55xf13yn6j5by4En68GuYtACes1fbImvuEIDmAoop+k6pKt+2KBHSkr4LZwYt+eR1tFhDFHHHaaZs8AmlmP3g3VkqfSG+EXa8GbC/7vqv5dJf/KHHYvUcEOIHSiIPEpEqKHrWu3RHfdzDbmAIbgiHUOnsdEBdTqhpz76nzLf09fzd7Cete371MEsGgQFVVKm+Fr88Ev81CUtSpG54BwZHID8d20WSF4fgBZrTfDxIRSmKKZkWXHcuFkCTo0AGIWWuBUxr2p4J+e9V5s+s81Aw0EW5hAPOVOFtVNeS0Idd1iuxaCb/RfiCUSlRm9yes+QymlLjJur2gCPSITQ2DZDGz/p0ruA0LdkxJ/phG+pibLCuGWQrCRdUBnLYVMba5pU4I7EABEh9xGXgRbBUQdHcc6mXZOl70vVkPbaGOQ5fRf7Ei/3dcIYEEnKhe5IYLJztb96/JihBaegOO0Vb97SKjRg7TiE01+LD+PEdDcSSywWTQ7I40ElzBKYXQQ3qSr6MmGX3fCuhOu+mozUG4I0zImdwAAIABJREFUBjIUbhAoDOWGGHbVV3zLk3V2vKSu2Q3hJfiH1B0lCBhpC3Cn0UY4WIsodBmhbaU6eAGPxVLOMfF2xWeQ2J2sQnCaSrv/VfHOLQV0afHgoqc2UiDezeAHAAHs8jrY6Eag/rkevtD0bil4cKxItH13SB1AotXmDm3fgFyBY045sQz8O5peRgkt7YO8Iz3lj824ibQ7lXWvyjnX571bi/5dRe/krHt61jtT8R6t+Y/X/Sfq/tN1/5mG/2wzONv0npe/s03v2WbwTANfPVH3f1vzH616Z6re6Yp3T9m9s+DfWvRvyLlXZp2pLCRsSF9GL4fIHpX+OStBV8aEiqAI4wGtCFxIB3AP9NGufQZ6VLIG6XE64zww63203BaZsh+MmxZmLntxkBDALqaDtHihyl8Mzy0H95U9uHI6OICBUa3F0qI6CEpEcrS11muBwP6c7GIGRBFglAloLkT0bxGGv8Qs2EiiCnAB0NQhvE01evzVtSsDSr/o/YkyBkGIPJLHEWMzkRF5TCQW0uOBwNdOuO+FXaa9aBtc1J5YLjyRdR+r+p+uBAyv6HUu9v5+vjiQCGA3lDK0/fjVWijxzy1nvoCIgCbiLEAIte/GmE150m3H3BdEtj5pYAVMAzgmLmetZmjBGoKH/CHWgxeSEeYg/wMyNMRoGE/k2xgvTOYkJA0OK0GdOndEC+uytG1OOLoEEeg1f+PMUbVJen0Lr2iNT8knnldvLeosdbvtHfTI3j8QFwcbAewW0zByti4mS6lMyGO20BnLi4JbgRdzAl1SNPChFaFETOD4o1LNLqAqCmH77RobEl0prDc6OROcM4cU6umm9vW2yIdExbJIyZ8lpcYTx8JQlBx7iHtycUgQgO6VO0qIZ8QZG52VEQHxorq94L8xHzxU8a7JSru1sraBxotqIhswACmecePI2NSeTlgDRbCxZHK/QXP/+dhpE+jFPuYcI8RnxKGb9mJZmL8gktWxD1dmnFMl/9X54I6iN1nsVP1ZofYRcaUfAtAnvh0GBOBhLHjhVFoiQCF4GN4tEabTc7oktVKwpZQ2wy9WYVF9uOL9Mu8lJG9Y20ArELhpNoE3hyIK85ghAYsJxZSPHtBe3h9Md/+tcb5KBCF1YgmLAKyL4AfhirpKNoBpqwoaD9NWxr8i49xV9J5q+B8sBT9tILacm/nWgj89p9BUxpISISvxPKqs7nmrqyHyisOAAPQVfHseKR0sTW6hiubOxCxcabBObCFcXqgWPPWv9fDD5eDFZvBQFSiB4MqUOylcAu5MYkVOgiUBVUZmIJpZZItITcYpYRSD7QhXlnJDVpGUFBHHu9nmqXmLDEP9QVuEMkEsJyp4BdR9ek5s/zPOdMa5ueCdmfVemgs+ERf4qoF4C1LczO/XQylr2fK1C1+VPsozLquYbdlLO8ZBujgUCCBH8eZCAOEVRMuQf+ZzSWvoaLsXmlOjLrboiXkh8tbhOl0N31kMztb9B2Zh05ymEZ1SsriQbae9FsOxOGDCNEiD4V7IiEUVF/oPhDljmIy9mXF5ky4q1quSEIPIouQtrZdKgPH0PKxMkOhQV8e9KuvcVvAeqnrPNbx3FoMv1sLMRrjitdzb0SUzCMo645SCw2E6iwA4mFwNhjMkNlHpkiAWHe1gXR8GBCApekQ6tEZre+DkJFThhpwbyaDsPCAePMPFOr8zn/0Q8TMVJ/z3hfCvq8H/LAWPVnxEENAa02F4NWjAfMLpeYW/OfyxDkrrX9pDm233+SR/JZHhXWh/lEvEC+qRmvfuYvDRSvD382F6I5xzw4tBF3ZnVtMKjOtDxe+2/dQMAgC1pFDpC3sR/mQnP9yLw4AASikvVDfkPIhAFNMNCMJNW9VRMX0Ou2NPNUr0Dp/k8/dJOR2Th9VGoaE9Z/yplPv2QvDeUvDGQvDavP/yvP9SM/j9nP57wTjCXmh69uZLzeDlef+1ef8N+SG6GrOjQpSt2XIVUunkgb7N00ndaakccAf42NkmOt6Co5rNhL9cGumdmu2XUtexmfv844FHAJ6W1IBAniSFb54ZyGTGmW4qXeR1wPPvcWJWQggE35SC8nBlRkpwblUGBFYmy+ol6QfVY8jL335pDhFvLXpPWJTXsWXGNVl3WfK9aJfcFqD3ej01pQ+XWWOiFQari5ZKmybGk+9uR3u9f6z3DzwCUJT/3/UwJg1grMAqNmw4aONF9ffzeKqX0L+z/SaUoB3GrPRAoJc0Ii0wSGG6qStLu4zIl2nQf9fnXwps7y9Bq4EdJkL+uUApsIfS7f8cQaMdgvWPF8LYlqRq2oUnZlymdB0hwM6AZ5i/IiC+t8TWlO2wMoOK54m00xCAGvppccCzuiumiApWANP2GSm5nvYYEL/VBtV1I/hYakPaGkhkh1iBRMQSHwU+Sk7mq/PDR2x6VJRSyx5Kb2gcsFKQxBRNlndSIa/rYvf85oHnAIRCFDffIrDCEF5QNxa8y+SE7/QQ+OpLsscdJQ98INKIDjKYFVSK6tq8rqpwWS7EMZe98No8eBfiIMSEqoU6mvPTqEFyatblxPmTnS6i5+/8UN1cQOS5xFZpTQARdWl3ek69uQA1YECU7vmOffDFgUcA7uED0qSaMY9aaZNUASQBD9xWegfHQYCubKLAsq3LoE1D1hIq8HpPSRui+sArvwqUurcE3d2o16ZSFaFfatyeyLkLktvcZ7QdLKfjJzSssVKq3lXTP/N3u6ga3fGWvf14GBAAtEqyZGyRYZ5WPO2ID1ho1ci2mVQQVWkrQrBTzjFLs40RHW2OGurJBmbSB2T51ZNsKcJeq5FwDBGEgAzxAsryjJQAE7Ffngum5wxnEylIMr/gIry7R5nRkW3zqAY+2AhAiBGvDapY6qAACqzgAKiH/DHrIfeBu13vLcd+QZSBGEPxLOhLcChYk0zmHemC01UQ4s13FlnRWnzAJqYDii9lIclC/gPFj11Pu88AxGpWB2NZB8sBkI+aR00rm/PVZ5z9/9VhQIDCxdA2XLDnJECD8Eb2OBkl/LeI+smyNIDYigM6FAJ2my/ZfrR9QgS4L9eCyRKcazYIjwqAtvyk3WRd+zRGDVic3Q8XQpZ8oz6j95Z+iYzDet3t6xj1vIY//sFGAFLN79YlCqjDHSsmoMm0U5fQrVGfE8df9qDvIpxOewaMF0noN+KUssGxlMM2UFaD5EVqIzw2g2A+hKMaHRoXIvrH0xA8bs574zHAczl1J0xkYMiKslYgpxTX+JeIYaPe2OGDfPuIhwEBPpWuFq3ibcZbFMupExm3awmg9k0YzifC8YwxXwKarTJgLijBH8+6tMzahJ6GG14ppf01sTf+BLIChOznwsm0rkrdVYIazhrMKATrjUAdz6BhkY16ImbGpcbbX1YxkTFMxkxqJP8/4AggB/X2InW1ls+S5zRZVLcWhtbncJDtJw58toISCTqTKwL6OhNFaPlNOc/WtT7vK0Rll426KXHXFnmE4kJ2+qab7DTIrHb8DEtGiyU0Eugxg3C96Tn1NvWZA84CDjgCyNm+NIfg9WgYnBhMUAj6vr5xMjuGjD4/JDy8PB9pDhvVZYW0UyGmISVU6u4ijZ4CZOJpIgJLCgsyV6bq6o+jV3y7Lur0LLaR6QSYlfzFM+50U70oUR5HHKDrvo3pJqHtqbqPMkEoptsiVASy/9ujK8To5mcJ4iNVFKqwXTasbKMV3AyKfD1W9R+rAlW0yd+4DqwejJ40DcXeFqObc9eRuRC22WwjLlJPKVlXT4x9b7vOc5c3DzYHiB6SrnijbaBCOBuKzX0tUO5yswb8OV/nhQoF1qtGsDF5ZMAEQdR4CoINcji1tqBFOIS+idJMM+49ZZ9Udk9WcbYhvT1RENc6g5EhkKigyPOAG7KfHzvYCMCdfagivZcFaCybjmXgsdf9vMYMO0Y1XPLUL6R6F6MkbFCnyDaAJ1SnI/SbuotAD7lDs8+NeW+vuhBQn3ltXnIj2XTViEBAgFl18lAERR8GBEBn3A45Vap4T8+jhsdIPaZ9aBvJdnkT7YlieS1Gt3CA0prp2qQFJOv3ldrOV2Tcithw90TOJgK8tehPz7OPm+YAknEG3nVnqUujwT4bsj+/OgwIcFIQoDMTQJrh9W8NNOojIQz9eEHiOrOBbljWXsjNsixR3MVyKi3jJ2ac/1wA5+Igo57q1vH5XoTZNtF6LOoKQGXVorqlOFYL29YZDuXOYUCAeyV5j0SU8MSgxam6Ojf6OIj+x0Aw+moNlUatkysKTBYBNAKnUHAzXlRfjd3o2bEQzvycpMWgdFfEwIDujgX0RhhRmG3HTEb68TAgwMkyvKTMH9fwlEIBtuQ+QADrKvpwGZUaAPpGm7Sgby+AA3CyKhaf2hPJx0KbRoAl03s4Om0TZ94n09qOs88vDgMCnCpBB4iKQGxFCA6wBCjiWe7hSXACj9uSzlFgspolzYs1xUjjfTJnNE2CiVlbrgx9GW2ixThP6jAggE4GiPBoNIeT+gV/2gfeShLyz9fCKcmYET24pVBa8o8sAizBT6bdL9dE+h8nIGx5FzHw3SV42VmS2k6VOsBNRd3YfctPD9KNg40ANG8+WvNRPiQip6Jnbdqdnh9OOvyOz5N59EqhbSsi5EwzLwtJXS6k9Hm8oD6XSl5jt9+21koEQLWleRWPlFulsj5ZUrcXjqxAre3amyvCR6uXY8QVEM84U031UnO02TB9lm1h970lVHZgvSpG+EQVSosD1kKKIKKMP1lUH4kGb7Goz7tG8RUZ14tzut5wdM6xGfED9O03PoopjWLMg80BeEiv6MSlllwBYEo7yZoOIrCwOIod7DqmfePrC+BOUiFCwjSiiTI6SQD3CV4WB5j+kqgoJtD0zyPrOoHd3+QSfid6C0QgQ1wQ0JqWhrOjzDXd/fwHHOGAI4Cc0vtiq+5IXCKVGn8wnDX7KIUevdJ30TS+N9APUw/dvTOoTq49AKLDABPkDjpuzCD53VYWskg14NEO5bH7Z5Hvrz0YrTATd6qunrpchudQJjDqQQ44Asj2fLWGGt9QIg2Vmkh7UNQK6oaRlYTodTAUnZ0QHbl1lJuBbE3mTbxnPO1MllG2lpFwtvgCHqNCj+paCAV9vKY7VpLj9Xr10O97ofpFXurtcT6CAMJd9zLMZLjLPNgIQKKYuxgC+pFF1ZKCAEPZIJEeR/UEeySE/nk3/FXRSyIU1DTwMgBkXWDoAd5Qvym7vylHAqejSyAyi210qq5Oll0GBfEV9o0juuDGLqA0ELaRwXlUV+hkHE+y9YhWFx32MCDAeV9dgRKFQANSWUrVdFj+kwUUoosewbVVVX/aQAstdGoylhML9BR7kLmWAV0/Neu70v7xZBnh3FaEiy4BMCcm3WRN3ZD3WJd8DC2JyGq65ppietJLZgzJ1iM4qM4hDzYCcDWhQuCxxBW3QlYQcSmGoLdGX8LJSibnloOJDKpG6wB6I+tbqUbHaDRQrcj+yg/VAxUTdWyEH0NudXXyWAY9YSfT7pdiHh21Wkw+84cFf7qJlIYWDnNF2SCZGitr7QTb4X0+8AhAZv1sg6URWwkxolmCEt8/4qQwwoobouyP9J33qdci5EE03ZZtJ4XWq8m6ekqqShGIrWr7W0nric2gibeIcwb0jUoAFpENJ8vqZVNwd9Ti0H3dogzBkZBr6o367cMD8n4jHXgE4DF8uhKgKTQbBBldDTpxJkik3LmR1QYl+BY3w9sKyP+KA3yhh4D/CByD5Is0T0NKoqLeEI4UJeEWB34/h6JA0sqSKo0ZxOjNx6TLJVSCWX/eLMr+vN85b+c7DmgLbkcFS3gzpDbRE0eV4bazpSN8lqdVc0JIHSgla0woMK6jCWmyrv6HEUFDnYWlf+eWgpjYczABaq7G3CniMsg5wonzaPT70YoWfDqg1n58d1HqoRu903IPOxTCnDJOoqqOp50vJGJi6MFOnOKfFoMko4BM5BImM4PaoMmaXojdhKFu7VgHO/AcwO7WXSXEhLaFxImDabKkbh1q5LqV3efc8MGKB0t/JjCVcVuVKcgBwA2kDMR01vlB4vutumxnzgt7/6s1IDMq44oaDR5CoQgKsZbxEPeRQ/OyJ2q+TRmzWNQx8g4+eiHC/XXLTRuuJ1XuUCYo41THUm1pBzPf7k8OAwIQIv+4yOxysTySaIm9Ip5CzYXPhPTukmJZGFVKfbAcTGelDpzJl22j1sYsC4d0HWWWCTGXnQDXktkIr85IqQjbp7GNq0BAko7fGPzqrPO5lOihD26XaMAZRkottcVvx1NOYlbdU0KAyeH47zAgAI+86oRCMv2I/K21yXgBBdtYh2dn8MG+ejzynzbCu8sQA2LZUOKEUSwk+lISbDSTTMFj+mjNuyhwfVno5/h8bMlDjWi40qwSbHAALg4qGCg56sTzYAUPVrzipl7cju2k/P15X12bc+N5XQ+LyyF6x0QB+J/eFU4PHFYcBgSwCuUZ3bQLcK/FBgEUdgp7pKarGGwLB6LANLsZPl73Y3mF6AATIi+QIYqvgUsI/Rn4oeNFHY4ajY8YBETIB0Klnm0EsCxltYhlmYxeoOUz0ijyWMp9rulR4+eecJxB3mj3UCnVqoput1EUKhi1ssFUxrH694Aj7+fHDgkC8KR/uICYCJQvNsTSXhAHnpf2htQa+6DB1j6qxc3wqbrPOiWxGUQoGDu9FtDxIspdpir11Vnne/HBRWFrcFCw0/tkJWDQhKAcMa3zpXi7FG6Yqqtk2r0UwsmKqHwdCzDaAbfOgY30eP+5JlBOqzQtWxZVeUhcTx6KckB2Ew4JAtj1IHiros9Pu28MmaQy8FjVtzUJSZjZIBX/hq06zxzQCdU/zgcPV9HuJVlXE2lfUkME+o1uKqCvdVPAaAbGk4cq3orwm23RYLsKXliVo7QZ3lKApwwmIINmLc3YlJaAgzaNyIWpOlxmj1f9H9bDjrRd3TSSDcvkX4sY6z4KdaExB5VdUn1hAniX6N+XepNR0LK/6pjzgft4eBCAR5LeYEVvqMIwwAu4GHEITd6TVXVt3nlvKVjuXdZpzVf/XA9faAY3FLzJMhpQiynTFK4ydFHiFLSpXoDPSVRUIu28L1bX7Yo9vUCHKoEbquebKJ4ON7NxzVr+ZiQio/MAD/1kXU0W1U1F76Wm//16uN5bcT3vqw+Xg2vyotgY/50OyIN6A4RHhl1dPX1YzP92tw8PAlhJ44WIV9iCCHEAlpM08lmTNYQPPVjxXpn3318KPl4Jzi0Hf1jwn2n4J8v+cbFCohxIAUQXZJU1wU35KgF9U8VfejHFsmESIWs+W9LbydiN3s2FZSPfng+uzQEQ0f1SOBu4nDWSSlF1oD3kMUwb0VBFBU26oI5nnZOz/rON4K1F/8NlLPn9peDVef9MxbsqB9BvRXBEYvI07ZCmGFdm3SWhGoeG/CulDiECOKG6rSBR7CIWt+wzxp8K5iBhBYmKdG9vAB+m6voazoQcSvWjrCfAS7c80qAgQKZhTqL5j6UAPdOZCOEfAYBYM9S6r55pwEIPbpA20G/kMaOZWAbooikBbKkoNpGYBTKgYX1dlizXkPhzcKLrEIxImwUumRkwyar626Goh95BiQ4VAlipo+qEU1lQegjl4j+yZ2kuEOBFVzGQIS0okUGuE0DBqtERaMA4RjgGiYWbWcqxFCE6N02FkBEAf+vILCv4fj28JS/Fd7PwmrXiTKPcwEgvWHLK4aLiaUzbLjmeEf4mDhPKUdaTyI3CzTSSS5+t4+UjXV1rnWO8OmwIYHHgpwsw0gMHWmHJWlW1ZFIjgwZ3A0bGwsPHWg9LoBHS7UXmmSypZFX9uuQzKti+d9RnZzVjL1TvLgbHJbJ6Iu3DCkShKBIMEl2CwLdV32koM+F6xsHcWiz9DCnnUoudqYY6bbIfjxBg1Oc7nPFJKWc2wum0hOZHbPZtErNx8ncAiv1oVQiIEJILG0uB6idr6paCT5GAdHHMkGFZwYKnnm96SK+pK0Rii9wf4XJtOG/X1edClmzwJO1ONdX9ZY/sbcxrHA4oXG6UQ8gBuGSCSMMN72bKVTaIZ0S2MeY8y+K3QoOFe6iYIuhD2s7ARDhZVncWvL+uBta8aGHxcls9/O/tqytO+GTDR/5kAwK9VIiRIH69WAHoQbCdzyMNDe3Mpuqo0sW3HEroP2xKcAeI2ZN7e9GfziKsgMUJYdURr60YTLTXDLoySvhDuOd9issTGR+6Y10lMu6ZivfP9VZAg4W/jveO86NVjpVSNSd8oeGdyKAcRmKWpltpNUC7kLYadfIEyy5o6WId3GRdTaWdD6Uuy6EU/e0ZHVoOwBVaujXvAjiuyqHOAgL3CwjhhNBMuIcSDEzQ0fxZeJSnGpDyY2nn3qL77mLArqAcdj+Avj3CDhnsvI+CQveU0NpxqgFMiGUD+sikiY4YjmgQ0+o+1GK6mWN5bM5Exv9tzWcbP6tyRF93mK4POQJ0wOuqr/66Gjxe82/KI0Yf9adKiCRLViHWo7NdAfVrpzPOHUXvqYb/yUob3EfJ7T4Ego7pFTfDtxeCUyV/SgKTppsKrrEyIpQkOSGE9bOAO7ACi9Pj2rx7tuHlLmq6sd/wfBR7/rNAANLI6HF6oZpzw58uhF+vBX9ZDT5ZCT5aDv6yEnx7PsxeDFf9zu6f0ZC4URzDEMfsQAOl1JKnvlsP31r0n6j5J8vuTXnvqox7Rca5KuvekPfuKrv/t+a/tRD8sB7alrKHnvDbDf+5IAAXTOCwcpHdha4XeHhLdFDXJ/fnza2YwHl6odoM1MUA/7pbFvjzAX3uxs8LAaKQypNmpCQj4WzU5IAYEh1tP18TE/ogM1E9yiH383KGO7efLwIMdx+PRjugO3CEAAf04I6mPZwdOEKA4ezj0SgHdAeOEOCAHtzRtIezA0cIMJx9PBrlgO7AEQIc0IM7mvZwduAIAYazj0ejHNAdOEKAA3pwR9Mezg4cJASw/ppD5qgazkkejbKjHRgrAhBw6YLV7kml/LDnHyNwuoI7f76jJR/96GgHWjswWgRwQvXArHdvyT05695bdO8t+feW3LvK/l0l/66id2fBu6Pk3Vb0by94txb8W4vmL+/dWvRvK3p3lry7Sv7dZYRwnZ71flfzX18IvloLFiMVTbqiR2t9R1dHO9B3B0aLABsB0tKTNcTcdv5JXQNWN5gsIkY3+jdZRNUD/MkPE7MStFxDRYPJsprOumdmvW/P6+iVn2cQS99jPfpy0B0YLQJcDNSVGSQTohrPDOpSxaWAB/JrU7gTS0lDFDZ4lCwt5GpJ+Z1jKYcPS5VZVnCQvI0ZFD9LVpHqcarksm3WER8Y9MCPnmvfgZEjwPGMG8uFyLszRdp0xq2U70QWooZ7gDhqckjFET6jq32YJ3VdA13OBMl+iaqKpVwmpx/hQPvJ7tNPTqg2JBj7ovl3bxn4+BDAQLMAOqrTANwB6Cw0gtREqbzAxFyUuXRiKNQjFXukso3OXiXOSOVK5Kpng0RF/VmyV/d2K/cpxO2zaT0wi1y8KzPOFRnnirRzPONkJQFtr+jX+BDA1qVh/iH+rUKyx99s5E/uMHN3ek5Xa0OyYl7KPhvoJ6OQMZHlPVlCNc+xFefZZ0B1kKZzbwk6IaTiLHIyY7kwvYGDO/wIgFILmWAq7Z5bDj5dQW3KT1eCz1aQkfhX+ft8LfhcLj5bQY7iuaXgncXglfngmUbwYNX7RR59QlH5GUX8pM4HM7vTHlSLgrom665K/de92sqDBIZ7N9eTs9LJikUdRdzN/Fw4QAptra7IODvb/M1A/e96eHoWRT8nMsExFjMzVdBQvq+hnmvCPnokCO1sh8fzq5OzLgpVRIqZ/mw4QAra8PGMuy4QqqvyC7zqvMSOaynYvzUbHQ0jgEuhrlhPHJiBrSmRclij84gJjAead/CWIwRw2TBrB3tnkeH79RAcIOOTD2iTkTCBNxeAXkdMYAfbO56fHCHAzhGAJ+QLef9wGcYf9DIR2xE6OKSgJNxe8I6gfzygvLO3HCHAbhHAWgzuKUOa1O26bIuutK7rNBQpyIYt7VWxkOgEdgZwu/kV3w4BleKoaam0m73thQB7RbbGZwaFoCI6wI5FIHuW3Kyv1wJBAO1iQxVbaeLJDkWtEp72Z4NdMOa0zxlTYxlssG0/NUiQHyGyzwy3/db2Hwy4QCuRtv+67ZNFYBvXeFLIVlQJph+g7Wdj/HAgEYBnv+6rE1k0PtEWobRUCW+oJxuwhu4APjqIkB+qNV9VnbBwMSxthvNuuNn+xCAQMOBRboV7TzymK55a9NSyp9aljtVWrB7iHDp0p1CpBU/9+0L4t1X0j3pvCf/+bTX48UK46LVtb/uuXGbFp7ZYgf59IQyUumAcw2P2EB9IBLB7fJ9YReFhQBsYxBolZtXJ2d7t4Owv2y+iR1hxwveWgseq/k0FbyrjTErPmHjaSaTda7LOqVn/v+eCf11odV+M/rZ91EE/2RG8UP14IXxj3n+o6v0y702nnWTamUq5U1lnOutcnXVuK3gPVrznm96fl4PCxdAiuR1h0Fduec4OpRTm8FLTv6PoT6WcWDZkceypppTIllK7ybR7e8l/sen/eKH1u9ZVZPAVT6U2wswGvF38944SvJZo3GSa2UxnnWm4hF3+jdlDfFARgNv9ZMOfqtumqJCF4kV1c8GzxfsjZ9H90gr3gVJfrgWnyj6boaNpXBG94Ccy/kTax7+ZgC2yWUf25qL/3lJAnmAH6f6O3nct0Kz66u2F4Oa8F8+jTm2iKm/PhbFsoP9yYSyP8NhEBQ+gT33Kva3g/WkxoFnZDtX7bT2/sfjz+WpwZ9GPF1AZe7KEBt1t1bOFFiBaMYt+lei9l1e3l/y/SO+wDgaiFOou3lzAaDRYt/owmB48DAPDAnPS25P/jtdDfLAR4GwT3XPZI3oi7aF3YkHdkNcdTXoeuPnCHvxV29ofAAAZVElEQVS354M7imgwnKigrD5baB1jw1AGKbE/pNAt9FyacSal++INee+b8xr2tguC9u3vLwVXZeDIA8pJH5p4Cr08MAEJgoLne8bhvwihlWLuDACZaqhr8+5Xa9t9udkCYzKuOOHJku4AAqBH9K40TJDQQ4ZsSUdKG7DoxtFEUPfLuavk5yMOXc5mwRPalA2wikh7DnJsywE0Gsje8ppxLuPxEB9sBHi87oMWSic82TvhAMWBOADhb91Xj9fRAgN1w9Ou7hENyEOcdpy9UhiQhwYC6CcgQIknEatXBM6cbWrhfHAw5NubbnhPWZhYXvr5CaDjFdKGLJ6RiHHBwHgGAIcu2ZiABBFieg7uFxBVRQfI4BMgBvD5b9bCZBodlNkjUMdZYRoSvp4BJuhVY0Nk7QzvldAsyIfSj+OjFSzL8sMFT01lXXQXZ8CvnjnCWLCTbDooLQzFlq0XxRfFUs4RArSoVNerSxv9qyIK/FuKAldAeSAdgAA7uxnemAMPAaBHGkSzMXA8L/JGHbyezTIoFUgag3ReQRtG/HC6iTZylLsGAUE+868L4RUZNOyIpyUpQgCC3Y3Y3BeyUAWYiXauTRGNRARHIzDdxA6UFexCemFo81fXzep2k0j4yQrkGQghptukVqjQJSlkJ1lMsohmAvxo289Y2QY7Jq2531nUOKCUWvVVMgWSFBFyJAxO96phQJeki0hUnBaEjkSgbofVdo8AVHfQBxJxhYbDMiLoqct1M+fB5y+GV2QYmAWaSh5NXk8F4Nq8+2DFe7ruP9f0nmkEj1T8O0peUnrNM5pFx+Sl3MkMGok+MKszNfvjAL/9ai04lvak7bsWDyjIJevo43RrAe/90yIiBb9YQ8jg/ywGv294p0puQtoSx7KhbpQtWRbItcj4lzTL8iaG7z8BbiU34XMxJQOLOA5bykqfcPQST7sPzHqvzfmfrQT/OB98ex7zeW0++E3Zn0h7COoEn9Rbh/iUGbDEv5tMvY1AXZN3pzPOdMY9nnauyLhXpJ1EBs+LNCWMRQROKsFXpKEHHynBbbDe9QPp92vzQbKum0UL4EJyTdbUJ8KIt1oMORSBo+mGJ7LwHOtGwmJEiknf34ksTEDfr4db/RViGQw/WQnuKUJqQocVUuIZ4MB0E7LQgPB3ahYN35HPoBMbpJtlynmy4ac2Qnq7u659wVNvLfpTnDxzjOTfeMZJ1iHODTIBQn/2Ygh5IxtY6Ecv4RmMc2PO+2ApWI7kXndMprgZPl6Dghun8CYbOJlyrlhQD0d6qrIRAS2bF+StzzZ8sFwuPO1ON9VLc/hi/cgM2rHFvT7y8JpuOJ0Bj9bNceEJBjeYSrl94uEI/X6o7hKFj8oDQFBMqMka+v5S9LRvp4XeyrX2/uer4ZUZB23lqYFIbHaior4WfZSTtA9HLziHqhMmpBMjFG4h6vfP6vROPkx/HH1S9HxFx6w54S/zsCfqNCOR32LZYCrjLIko1ocJ8CsnVDcVfWo+Le6Xha3ptXnfify+NQcTrWiX88/14ETOIR2BF7KhHqp61jJmH4tevND0YEbLSD9C6e7KZKboM+O8PmBKMOl6qNTJstBgq/7CC4ZMi4eroFqR42vbTMLQG/M+zoBN5AX6j0l25TMNTXm3uqXsKIRLfmy64U15L4oD8YK6LuuS1PWagzUXvrcUMDVksqTeWtC+i8s6tkIpJKMUPHRTWTeWDWAsgv4A/XiypL4RCSSKLXbyvOBXr88FoMSmizgM87kwnna+NUatPg01uMMcp+GG1+cRo56sqidqehVb12639Hkx3IEDiIadrKqP+3LsjskP/eP4EAC2hRzUPjai2rpHfdbG7eNPvFCdqXo0WYj8wFxKhzbQn3qnF/HndSecFM3hGM18YsdIVtVLIr1Y6OwzGX5FXJl3w6uzLrLVRBYiFfyDQHMfELSDn5wF1/rawpz94nIXfPtr8z50hjStNMggnZ6DPwGr6LG/vD3nwuwDM7/kW0MQSnuxbKiz6rb0Teo1HU6j4YbX5t0XGnrFPd6sQ3QtAkBqHUBk7fXqYd0fHwIg5TcXHk/3C4ajpNFrB5WCW/H2AqBf2/4BvqB/8QxE6v4SMId9jhRIVDH8UM7gsWpP0tVno3n8363DinKM0XgzTjyvrs266zJen4Xwq7qDnnyDY52dDH9+KUaD0gutMUCApnpRMLkX+vH+y/MtQVw2AcyTXKgX5thXd1xwQDK9PrzXrjGKANj8nxMHAJO9IuNsVS479rTjYxAiGOabteCRqhfLwUNpPV+0/8CIWVAnMu5yb/GXELPi4TEk04gpHeb2grp+AKGlY0r2I4c9UzE4mUKyf7KmPiVbt891u+BvLWR0e+Qy95wQEhddrTF59VRDPS9pcXbwrUNsBPCdxfOw4ZCFTpbUrUWP+Nznh1uH4h37E3vR9UmiikUAMB9BgP5Gi65DDfHm+DiA3u60c0/JPVXG331l93TFOz3rPVTxzlS9hyvew1XvkSr+PVPxHqh491Xck2X31oI3ndUeRwn40SKvpv1yipNF9X3fpHju/qW+vzBxpuHigQw64ySq6i+7kEE57L8vhPEiYvLEj+skKup0ubcBJXJ6W3Vrfmk5ob2I/Kjt8n6JLdPVliQl6GyjpxbE2f59LYDuKz41THgG5J8+rO2SfzuV/qDPx372CEBFLQ2tsVUGglUhKoh+YZ0IXS2CBSOkWgRjcmBjFoOJKHwis0rUAPwvNXXucmVReEKPVOg51igUL6qb8l7U4mFPdFsXXohx4kWhqQggC6ayzmJvdtR18MsGIXfox1zREzWtBlCcm2qoZ3oHw/InZ5tQf8X6BId3LAu2TIvnIHDcdfKD3PzZIwA9JhJbYsvCQROiSx8c3I2lBcr5r5QMEEKlyweRX9NtjodnQGsn0h556GUP72Kgrs05MZZXSUFlnIIRGtI6z2aQU9z6DN/7dN1I1RI1MFlWX69h1EFG7njmYqDqDsInf7wQpjbCS+7qC1pD0S/n8/z3hWYw1VSxDJkPFKGneiMA53ObuM+htYsdJlFR/2Us91tXN8Q7nPDPWASi18aYHWzYE2M/tDlCwkVA42nakwgq6+hF+RMEYIFosd7oybJfiMRg9TotwmhxM5pHL0bDsvqKYHpZ7Ok1tDFKvr/UIqtwSA+GWva1gVL/uhC+NOefLPsnJAYbG5INJtKITr0y495b8l+dD1hAgbomIy9emfOn5+gNBAVJ1tWTYou0I9uJ886yFyaFR2kHQhqGo/8WV1QHHtofDuvi544AtjIcBFaJZ4z+iwpwosZJoAuVs1bIOO10yaoUxy2htsqjFZ82u0GoLLf+qzWYaxhMphFsxskJ/uz+jL89H4gIJHFsKbh1H7wcWbUA97fV4LaCz/gfOJjzCJgxpn3Zimw4WUY8Uiwbniy73xmzqVKIgZue1+Z86JR1bYzvhQCpDWs4ksp8ojacW8JcdqwADLh7P3cEEAEGxxmtDBeV+3kfDD2HhAk8L2olOcCxlHum6r2+EPx9LVyJaJhbT3rrefBo3xMiDQ1YxDBC2MxGGGypVmmTkga5uBDA7/a/6yESBsQbFUvBOXpnsV96PqFhxUcEEbgZMNOJiX/0GNzSCPOEj9nUS01kkBkDrV0CV89UvDkXS39nMQAHkAhtGqB+JybdrdvCN34jVEAbbWW28YL6x+V8Z1u3dAd3fu4IIKEKbZXhPpEKcPz3Y7n+eDl4dd4/kZUQQuoMxAE5eGq63HrrWRzkJIgAr80LrOjwG5DqiTTsS9F0JJuXtJ0LZzrtTme1R4LhdJMldUfR60VTCQpNN/xF3mNCDzZHYoZZ947cAJFOeYRSxvPIgGEiTiyDeLJkTR1PI2D4oxVx6MKuhSKqyZr6bQ8RiC/9dCVAto2APvnqsZQ7iBg5yD73f+b/t3ftz01cZ/RfBVuSTSDJJMQNYUohYSgJ7aRDkoa0EwL+oZkALSE0bdppIZk0oQO0ITMJGUkrWZJlWTKWAFv4oX3cW853di9rSbtayTYdD57JZJb16r6/e+/3OOd71gUAm1kyZrh6Rz1v2aKt+pGS2LEK6vEGyWjHqIUVNQEc+j/ckwgI0SKw/VPTAORKbf6/vQVPziuJiMwiRuj4rN23PdybH8d+vTrjpGs6Df0VorhXLJLgeinrQzPO+QXv2gPvuzZU4e8fIQJvesFj/A9ipPPwYIzn7FeK4tCVSCQ6ViMFQCr+5wNjCEZT91peKmc3xBDWe2j0bf/IL591AcDW2MUMZ8g2AhI4T2nqdjeWEYk+Tp1YIL9AXdSQEGCECeDUGvgYJl7uV7wF+VpBDur1qP89CajmTU+gyf2bysZ8UIM0poJQHJ4bcCBUnbshwHFXZx2Fu9aviIQuKsTwhQCHjIY6E3sCwBNSA4LC52Uo4ExuypVyVwC6RnsL/rnmaZMfwAjAQE8wZ+LdGi7HfsiaH2kDJe+L4TW2rr1HVltIBkJoPf9k2Nyb8Rxu6if6nQBsyd0VhaQ4jJ6gWSwLteFTCePhuDPqjrb/3mjQm8sIvwErjIgQ1CRhhcnMR8aDsOobS/CC4fJDAJDlpvKd+d0TYAsWe78iNiMATQeADAlbCC5CWWQDyOSGnjDO/QXqANx0JXri0IwDzoI1GN238D9rzbff9w4JZfu0L9ty82Eca01fXGQzB7gOjDtsydXHKwiJJSYBJ4/oAGcilGBW/eOKAO1FAHgS7rXcbHQEYW8XRn7D7j27foDkJ4AxyV2TC6sftR8cAumafqva/3YRNTfUGf7Sgs+IViB402b0i5Y9rDoRVUWS91yCLQdIBiFcgAAQxnm07Bu2+M3A0hi3s+zql2ZEWWI4JwUgAhPDkhdslcoDPgalWTBcmVoQuZSw7oGNi/hgVwB8HWDgFSg8gKfmJA8STTd0pck0/52xD8nmjEO/wQ9AvdMC/EqLM8tE3WzhQ7gjxl9xqy3Ro7yFk8toTt8QZpGhpJEy8Mk9mLa4R8SbQdkYR+mpGUAxGUA6Ln6AcxLJnGwsu/o0xD93BWA4AeB8zHVU2oKxgrF0wn2CYJt0rlNPfHNlUbPrClp13sXRL5FFEw3Y0c3SHGIyR/qU6/tKC75bmPwlGGGsqCbzo6T24Hq6IAJATYlK8AcRJ4CJVX6vFgqIYjzsjA/jGqlbSX+0KwDDCYBZl5+3PIHPitpKB5lweCSMuDTzYytQBo2XfCpF0si9MbsxzsZ8vQ0PXAEAJCB6B/efMWG0Plrmbj5clZTqgBhGblOxnmBzsaQlVOgngnCgqr41CMk5XOP6fb0rAEMLgBnGY9T25CJE9w2Pez83XoLDm598WCeTnJ+LkpoAVUBOj6lxOx7YhrM+mx1OANqLTg6p0rBtLO2cBOERIBEfCmFOgAVbZXJAoklMuM8nebyyqY2A98b4QesSAIaOP0OAmKGUYDOUHLViAH2ivY9uo7GCmizEQeBNIeYwufNIEUge3IKASCKLQQIhCpfX53lgCfxgukHfLTVgWD+Plen86FNmzCuW9pGQLPjAfAmG+330FcjIwDthEzP1kEAVHuEwMh2P30R6BYCeu2cFEzyaAJi1e1FQfD4WzBg9aqAhMPMas1z4J0/p10rCpSUlQK8QIPkd4dccSgcN12VWgHkI/9U8s3yEryF+MwDyFvX+Yqct+2/8z005fODHvNAblpGJ+gBybK7CH8URwe5zT4EqUvDVqqHGgR9X1gNsZ3QfNgiA1QOK7+re0/rn00OEjSwAHFJb6cMSyO5T8QhaAJbvYOsaOG2cgK8MKEy8XQg7K+mDRZtLkN8MNfisV2k90J3Ewr9dAt8yTZD0yKarmgSjA7vQ1TBP69dKTqocxA5KeoSB7PAcz7fn6GfEQUQwTWoWI8xxSHgO8LNVT0+VnPGcn/E3qhcbBICsEEKL4oOZoiWnq9db+88dIADmEADysCTM2gFsQMg89H5rOPjVsYr4UANaFD/Iour7BBLOPY8dTuq6p7ET5+05MUxFSRGn2NBSmIiMdFW/Ufav4AmXAe9M2VXQ+JhrIXAIdT2QGI9VzHUUAjEKHvks6EdLz+nDJZdxpvHhhsYf13L0zyvCDVNEgTxL+65RDgt4gUDHgmDscaGx+ISYpI09T6JU9K1l2Jc7QwCMDEw3JHySnA5iEaI2/E5EAEzXcHCQZ9YUFg24BH0fMwyINX2y6jLTMKvbOCNPSgpztGgBsrxaFGbpKiJAuTSjfstSTlSF1CioHcRYNf3HEDXQk8p6ngxy8rE75WgldJ0TT/BEQ5+NRYSxPK5FmIPIqpLr7JFzgNx4B6zOt4IT4sfsr8mSFO7arbZ6wULcB+AcWQQ7jhWQR6On1XjBtx/TceFHcIgKVPGdgK7QsYQPkHBdfcvc/MsdIwAcixUP1xUJhJSzW9jDx7MAoNygIW/QmHEarslFyCc9DuY+PQfM5L+WvC6d1F8BPXxb1XV1pg56wFQZRBUQxbqejnUqsfYbyxKRxiNIPGJURa6EYoG40LkRMhYo3LPCmjpCekbgpDEUuGGKVysGExxeLiwNOrSPqHxyF2IahBOzYF03fCfh3657+s4j9esqNn6hRjS/RTz2KxEwa67sqy1vMsBwSkgSyLxI6xuu4quH3vfCchDudfiDrXreMQJgtpD/tHGHBlaYYJG8Ax7zGf184kzxHNNLTVhjhIPfnz8sYiFAPlR2rjQBtuySBA76kqtvtsGVSz4F4FcCtCc4+2d1kvD647Mg4/dD/Xzoj08nYXCPvXPMFDLv1ZCwI1XWaWGxNfTASO3R0OfqkLKB68Z8cHpO/BICvvFjAXNIDkDighcs+3TNubiIFElf3PcuNUGcelCYSdM10T0C8OqYMA0fKNhRDkoK/+02DHEIxfPtEDiKx4r6t/PuN0ved23vy4fe2zVnX0vTOmza2TsaW/Jm2wVAGDwlRYKAXCeH5wUK95PD8X4dVAi+6YOxzUKM9btYC2C4HD5fbgIdAvJucv8LQmA8azP5xd68M1UCQct0w7uw6H58z/tw3v3lrDsplKBgNWQqDQnnBICrCLaLz8W13FuXecMu1DrgZgM7dKCKEOyfngMg7vWK88k975sl9cMj4AH+28a94mzdBfdECeAYSk5mXh8qOxmJ7YFZ3YIOcH4QL1BXS5QGhmaigeAIGNkC+5iwwINDgEjUCeFnn7wntcOZKLhWGXxoYhb2/pcKcVoQO/7Q1fssgTvz6CMpfBYQH8RpC/QHg5CFv/8ppAjYdgHI5ECZzTw/42WdycUxw5m5iXrgID5w9IECbpwSyg8sFS4AAkMhtSU3m6hCwhvk10veuMVwI9olJU4YqGWoB8w9MdEAFhkM/XUscXBoYq2gUlk0+CEQW5b972SZWti8uyvg4iQ9bcBxK22QjjA5ACjzCx5zFkF3lBQyqTyufJlc56/3vWVXP2dhmZJnagIM1UPYhTmeWoNxeqxIDAbucmIhFcSM9BTibWGVIyeIGHBkwJHGBntHEXjlt6oOicliBp/VnW/AEIyYvIApRxrvQxSgToAWBOchGftMI2MmdOQ/ba8ArHv65YKdyQN2KCnf7JcLdleuxWGbzqvk10tANvHmjf/nOinMhJoqOQy2SzJq/GZ2XZ2smuxA4FbwIyWBjwmYWmT6Bblv78kiIQWMGDKFwGdV9G/mnBhW6t4+cpUU19TUDG4gey13HL0QScYNBAsLwEXBSYJyK2+n87b0EXvwm3MOra7rnsYZW4Raz8i26WhirN5mhPeC/Ko6XoFogWwG7cGBAFMVx4GXFiFURZIYkhhInqjnira5xMesflNX20VAXqauU5bfRx9LLalxOPiPUQqZmn6xaPe9hfbtyGgvt1cAtNZhhvg1yfU5WkPDv+LCfXfe3dfCbPnI+nkkUznQjgTFhkswz2bCHsdjmvxw4HewXGAUhaqIO5/Z/HDzkc2SKsSpqkNSOqOlmMLjH1j1qgeC/AlJ8YLLseVyuUMekJoSkgCKAAsGn4kGbL7/CMwsVI6Lgmew1gBsyK4qGjHjq+79qxmH28vq1KxQptZQHdStEm5lkr4Fz6lZASg38PJnRedKyzUcBck3nQVbHSlD8tnlEChPUJpCgXGg2HkKevC2C0DvWG/+DQd63QOrIdH0XwYP1x/gzVCHjJk2JTbN6QXncNlJW1CsM/Ny+VnUk4t4YOaYPVkkMnlz1v6s6VYkIwv3NlNO8g6aZbdgq0+b7pGSy7xjuHRJjZOLqBT5IZET0r3c9HjNMLtp8roGfhluf72jrj/0PmqAp2iq5Byw7Amrs9+yD844xyru+/PuZy33pxB003RkYC2m5Y6C8edIBUM9VoBmnMK+g73gF2Xnass3SYdblaTwYb/ZkQJgBnHY3sZ8H55CT+mGre488q4/8K62vD81vctN788t79pD73YbCXpJ/szS4h1GMTX2/lxpcMLdbnt/u+9dbrqXFt2rLfeaGAQX7MiswL0AhoGVxnwQHgd+5igc46uSwcXuYU43HrGYMnv/ZJa10nrBVj+sqJvL6tay+mlFNUOXHvNZbwlb9WanCgD7zzuA/38FVwv8NZsYG5SQ+OejzX3f4hNK0RbW2LcZ5iXa07PWE/7VfDbwIWaon1pPd7YADBzikT/wnV9dvBUiXdvqpe9fbwK7/sg9/b//8ImzT7r5FHb9cJd3BSA8GrvPz9wI/A8N8trU1zfURAAAAABJRU5ErkJggg==;fontColor=none;noLabel=1;" vertex="1" parent="1">
                    <mxGeometry x="704" y="518" width="60" height="60" as="geometry"/>
                </mxCell>
                <mxCell id="19" value="" style="shape=image;verticalLabelPosition=bottom;labelBackgroundColor=none;verticalAlign=top;aspect=fixed;imageAspect=0;image=data:image/png,iVBORw0KGgoAAAANSUhEUgAAASwAAACoCAIAAADVSURYAAAUwElEQVR4Ae1dLc+rPBjuT5iZmZybeBRubmLuecz+wNRjkHiSuakJfgCZJJklmZhB4+ZJlqAxS6ZQvOcc8pIG6E1py0fhnjinT1v6cd3XRek3yfCHCCACgyJABs0dM0cEEIEMRagZCdI0TZIkiqLn8xlSv+fzGUVRkiRpmmpWpdkXF0U4agokSRIEgeM4pmkahkG4f4ZhmKbpOE4QBEmSjLqSsy8cinB0FEiS5Ha7mabJrTiuiKZp3m43FOTo7J3h5+hobBLHseM4m82GS1ISkTabjeM4cRyPpupzLwi2hMMz4Ha7fX19SchK8NGvr6/b7TZ8/WdfAhThYBRIksS2bUEBKX3sdDrhZ+pgPMDP0UGgT5JEeZdPXpWmaaIUB+EDtoS9wv75fCzLkhdMdylYlvX5fHoFZfaZoQj7o4Drut2JR23Kruv2h8vsc0IR9kGBKIpWq5VanXSd2mq1iqKoD3RmnweKsHMKnE6nrgXTXfqn06lzgGafAYqwQwokSbJer7tTSD8pr9drHLDpkCU4OtoduI/Hox+R9JPL4/HoDquZp4wtYScEuFwu/Wijz1wul0snYM0+URShegocj8c+tdFnXsfjUT1es08RRaiYArvdrk9V9J/XbrdTDNnsk0MRqqRAq91G/etHVY6GYahEbfZpoQiVUWAmCsyVjDpUxhscHVUF5Xa7VdXO6JLOdrtVhd7M08GWUAEBDoeDLspRW87D4aAAvtkngSKUpcBItiOpVRd/arZtyyI4++dRhFIU8H2fn69Tjen7vhSIs38YRShOgdfrNVVdta3X6/USx3H2T6IIxSnQlqmPfz/P82zbHueaUsuyPM97PB5BEPz8/LSqoDiOs38SRShIgbZb46vbEZIkuV6vY9jidLlcqk1ZGIatRGiapiCUs38MRShCgbYEJYQ8n09WTmEYDrXOBu7OtRIhISQMQ1Yd0R9AAEUIgMMMastOQppxfj6ffZ65Bssvr7nAIlgmZBjARqCZHOxnZxoiMCfBP58GDLcahvH7+3s+n6/Xq+/7QRCEYfj89wvDMAiC+/3ueZ7jOJZlAU0r/2YIz/Pavm5wxkJAFSjCdqDFcdyWl4QQft7npck7nIZhnM/nx+MhfFDv+/0Ow9B13Xw5gWEYrZIS+OomhLTKoh36E42NImxn2O/vbwERCpyxO4Z7XZIkEajs9/d3O0xnHxtF2IICz+dTgJSEkCAIWmQzmqhpmorVFxiFGk3lRlQQFGELYwiv0tZ32FBMhLi2uwWrcBcFP1jCzaDWY/diIoSnZPgxn0lMbAl5DS2zVULTU5I+n4+wCPkHhHkNMN14KEIu24oNURQMvl6vXNmMLJLk4lg8KJHTnihCLqDO53OhKAGHZVlc2YwskuSpjefzeWQVGmlxUIRchhEQHv3IcrnkymZkkeTPDh9ZhUZaHBRhs2GCIKAVJeaurpBuznjoGGI1pZ/SdG6mZ+BRhM2At90wQbOwcOvYQRKekilqjVsrmumFUxRcGBWcEnVoOnktPFlP48SD8MzjYEvYQACx9ZM0Cx3HachjxMEys6M5CPouVOjNLCjCBqglx0XX63VDBqMPFtg1Qr+DcIy00cIowgaINpsNTam27mm0A21rTcffbDYNEM8+GEUIUUCyUzSZJZSSF32PYUcIZOahw1CEkAUkO4STGaCXfBlN43MAIopcGIoQwk+yBYCS1i3s9/eX/shs5XZdV7fq9lpeFCEEt8wMoaZL1VhwyCxhw9lCFqq5P4oQwkdmVEbTnRMsOGR2VODYDAtVFCGMzN/QVh9dpcg6LpGBEZE5IhVOeeah2BIyCfB+v0u6avUnM11tA2S6he/3W9t6d15wFCET4iiKWqmOjjzJD7DL5ULXsZU7iiIm0LMPQBEyKSAzPzHJE8eu12sr4dGRcZaCyTNcwA1AIzMeeDwegZQ1DbrdbrSuWrknNkyl1oLYEjLxlOEcirAkUYGTV5mGmVwAipBpUoFD4AvmTfKYIxlAPM9jAj37ABQhkwIyy2X2+z0zXW0DZADBRTOA2VGETHBkxiEmOToqs6tL0/PmmORQGoAiZMIp8/XFcxcaM+OxBliWVXxvt3Xg5yhgVRQhExzgljIeCjLT1TZA7DKcHCue6xC1BUa24ChCJoIyUxSTvCGM59XDioNTFEye4TwhAI3MZL2+NzGxAMEthSxk5P2xJWRiKHkIfNuLQZnlGEeA5IlPOh672hvwKEIm1DKbdwghu92OmbSGATLzE4SQz+ejYaV7KjKKEAKa1cPh9J/S2Sr7/Z6z1rXRIJRnH4YihChgGEYtpTg97/c7lLo+YZIfBZM58Koji6EIIWBlZsYIIZNZvCY5ZTqxkz4gxgiFoQgh2CTJRwiZxv769XrN2fjXRsOZeohkOEUBoyM5JEgIsW0bzmL8ofKXUml6FUdvpsGWsAHq2ld7K0/dG0OZ065yoBognn0wirCBArvdrpXkqpG17hnKf5BPbKqmgS5CwSjCBtgcx6nqqq2PpisnkyRpW9NqfK0vpWogh6JgFGEDkPLdwpyXcRw35DS+YMnxmLzieMRTo2FRhI0QSZ0+SrcMeh37J7Nngq51M76zj4EibKaA5AV9NCN1GaRRpcAJDA4380M6BoqwGUJVX6S5Gkd++N/7/ZYfDi3eOzg50UwvnCfkwUjyPPyCkYXjdDpx5ttzNMl9zEUFc8disei5/Jpmhy0hl+Ek9xCU2Jn/OaqVpVEUbbfb2nIKe+LhTlzcwpaQE6bGFczr9dpxnNvt5nkefx9yuVwOfiBnGIaqeoAlueL2JU52YUvICVQG31VYnYFo9WlnmmYQBH1ufXo+nzKnp5X0Vv0TF23zEgtbQn6k4jiuUq3w+f39rSaVpmnbBTe73e5yuQRBUFV1Nf1WPkmShGHouu7hcCiK3Z1DeflbVVavyNgStrDX8XgEWHs4HGqbMknSSx6T8Xg8FosFUOwugiZ5C0ALorSMiiJsARjcGOZsrj1WTHhzsGEYLcrHiAp/SHchQmwGGaao90YR1uPC8uUhdHWsRfi+UVWT+10ojZUm9gZZ5GH5owhZyNT7Nw6T5tSsTlIL3PGkkM2tRolY6uL0x0HReuqwfVGEbGwYIZxzhtX+4c/PDyeP82hqlz63ylo4Ms4NMlgDeaMIIXRYYTzbC2rHS3kezAWgfLkJz4e0sPbyByd5DQ6LAwr9UYQiYHKeC1z9KE3TlHOQRuG3aF7DHr5I8YRfETLhPKEYalmW8Wz2ZY1tXi6XxjZH+T7gKIoaM5WJgJt3hbmELaEwdBnPYkvWnonP5+O6bnUq3zRN3/er/UnxUv7/pJJt8iyV4smi/8Ms8j+KUAS1/BmekVKeA2Y+n08P+30lb3RhyS/3xxFRcRrh56gMdlmW8Ww1HM/MNSwk4dBq11cS1bk9ji2hrMUbzyNj9QxlM27/vLDMgAfxYN/2dig/gSIsIyLw9+l0AmhKCDFNUyBZ5Y/AhRQIHe3uZOXQdZogilANvI2zcDydQzVFYaciIDPgkZG8WdjV1SYERajMVPAei5zN1WWlyrLnSAhQVNsg3CfBgTdvFBQhL1I88X5/f3nYbFnW4/GI47g6FZEkyfP59Dyvi/FSnrLxxEEF8pCBPw6KkB8rrpiSt6kVGuhiTLVIXMahfCkPF6yTjoQiVG9ensU0jTIYpwgldxirx3oSKaIIOzHj4/FolBkcYYQiHNXxcJ2YbaBEUYRdAR/Hscy5EspFKLliBhdnd0UUXDHTHbJ5ypxDNdVWUTnphUWIwzBdkwRbwq4Rzu73e1VjjT4jEeGwcyqd22YcGaAI+7BDmqY8s4i0MpWLkGe5OV2Aw+HQxTRJH3DrlgeKsD+LhWG4XC5pogNutWdbZFnWSoRBEPSHy+xzQhH2TQHOE5+GEiEeEtM3IXBgpn/E8xyv1yvQDBJClO8PamwJUX5DkQFbwqGQ/5uv7/tfX1+1auyiP1ab0WKxwO1IQ5IAW8Jh0c9zj6KodJHT+XzuomClrY+mabJO3+gid0yThQC2hCxkBvAPw9D3feW9Qbomr9fL930cd6ExGdyNIhzcBFiAuSOAIpw7A7D+gyOAIhzcBFiAuSOAIpw7A7D+gyOAIhzcBFiAuSMwcRFGUXS/313X/XM/+58z0Yrf5XJxXdf3/TAMVd0BOHcqYf1FEZigCN/v9/V63e/3tXPTLM+fnx/XdZXv4hO1Cz43IwQmJcI4joX37xXi3G63nc7UtSWX53mr1WpT91ssFpxFTdO0LoG/fuv1uv8dg2martfr2iINUp62RlEbfzoi/PPBWQhJ0gGT0vf94/FoGMb397frutUT09RaqLSYplS1x+PBk13jbTA8iSiMM7byKKyaQFJTEGGapqwVmCXKcv7JWkvJykj5YmvakD2IUPmFpHT5a92wCPsvT20he/PUXoSNmwM4hUdHY33jAVLvbnQHRdibGIbKSHsR8m+TpWUGu2uNAe8DhL9gaxPk9EQRcgKlbzS9Rdj2zAhYe3ko69KIw+EAP84iwfv9Thg/nmv9UIQsYCfjr7EI5c/2rBUVa29r4/mFrOmN2lwKz0YmoQgbIdI9gsYiLHjM71gsFoZhbLdbwzBWq1Xtg6xRFqBDmKfD6hbW5pJ78oxAoAh111hj+XUVIdxDo3m/2+1utxurmUrT9PV63e/34g4JFmSwGAhhIkkXpuRGEZYAyf/kgYVlJh39mdQZeWV4xmOWyyWrWWPVjtWaZVkWx3EtY3JP1qxGlmXAUzxsg8WvZJ6QpxgsxMT8cYqCxk1LEfLcFL/f7+l6KnGzml/WWE6eKYqwCj6KkMZESxH+WYcNMJsQslqt6EoqdIdhWBqhcRwHTh8oKk8ThC0hDO8EQrUUYUkGVZazZttVGSyKoiAIOL91q8UrfFCEBRS0gwcWVaYcQzr6iRD+kiGEdDdvLmYwml4lNw/bsCUUg12jp/QTYRAEJSqX/uRsoASM9Gb/gNRKxaP/XC6XaZqWUi2tCFciwvf7TedbcvO8C4AKCgTBb9KiPGma+r5vWZZhGHSZV6uVaZq+7wtkPcJH9BNh4z24HaEMX65U7RlGUeR5ntjWKroKSkTISfo8391uRzO+5AYGkF3XLUWm/6TPOIXLs16vkyThhO56vdJw6ejWT4SwbUzT7MgMpZNzaXoRQop7pNM0bVzgVnq2+ifdGMIi5DxBFF7mXrQ8OXSbzaZapMIH6G/D70f6ol9YhEVenI7v7++OjN5PsvqJsPRlUrITMF8nCSinCOHpxFJpWX/yi9CyrOv16v77VR2u617//WB5lEQIrw0aoQgJIbvdTtK+Az6unwhZxM396W8etbCOU4QwGpyhExAh/TGi1u49pDY1EbKWp2VZ5jjOhft3Pp9LAzwowlzS42wJ87IB/dUetCSchWYihPs2hBDW5iB4eLC2xbBtm4YVRTh+EZZMRptvzG7NRNjYoWdhLSDC0+lEp4YiHL8IgWX0tCnH5tZMhI3DHix8UYS1rX3uOc4+4X6/9zwviqJ8R/Tz+YQHxvO6dDcowKKWvD+KkElOsZYwy7KI+sFvjcViEccxFf2vs9SthacomKVvE9CPCOm5dfiLxjCMEggF0eGpSEJIdcK2eHa0DhQhk63CIiwZm5kBISX2lx7M/5yhCOHJXvhYZ3hHSy3Cg3tqJkL4Dap2YAZFWPv6EB4d5W8Jf39/AWHAx5rwvNeAxAcJ0kyEjaOjrM+Y3vqEVSvWUjn35GEM3BIej8fSNRvFfRu0A06kVIyOJutVibCRA1UTjNxHMxHCG9UJIaXJvQL9RstVpaJFS8i5bA1+B+klwkYO0OuNCgKM2TE1Ed5uNxbcURSF1O/5fMKLubQQYRfHW4y8JcyybLvdVl+ahY92U/b6iRBe499quhbuXaAIC1rTjsH7hFmWfX9/00UquVGErHZImX9xLFoJ+vzPVgdbwLuTUIS1CI9BhPA+FRShMrGxEoJXrhBCWGMz1QRRhLnMtOsTwi3h+/2u2nrMPvp9jjYetXY+nzkRRxFqKkK4T4gDM5z8l4pW+5lEe3KaAUWoqQjhU2eluDXEw/q1hFmWNd4Dw3nWE4pQUxHSL9yqewgdSeWppQjhUc3cKjxrCAcX4XK5bLQePM8+wykKeNWUjlvstRRh43RtrkPLsmCKw2LuYXSUZ+vN2EQIbFOA511VrZiBX52NRocpMUioriKE7U1/olwulyiKqr3EJEkulwsds+TuR4TAiH9OiP5FCA97AONeMJ6qRAgfMqTj4Wu6ipCzMSzpqtWfqkS4Xq+BfFerFTyn0r8IG7vc1bWBURQ1bvbjFyEhxDTNai5ZlsGzxMC6xUGaOM5MNRah7/sAueWDVImwkdOEkK+vL9M0Lcs6Ho+GYdCHdPQvwsarPggh2+3W/vfjqV1ui1YiLMx3OBwsy7JtmzMjTt6PKprGIuQZJi1sKeBQJcLGfajVsr1er4Il/Yuwo7ebmAir4AA+OnYI/37TFcbW1AGvNgYM1hikSoTw5vraYtAfqP2LUGDHSW0tSp49iLCxgz1OkmsvwjRNO9KhKhFmWQZvBi+RtbTyrn8RdvSJ0bUIddxTn78UtBdhXg3ODkOV7oCPQhG2bQyHbQmzLIPn4gDQgKCuRajdktGiWZ6ICP/sMYMn/QBy1Aa5rltglDvghePFXRSlp4o/WxVvcBHK4Lndbmtbfh4Rns9neIKk1liaDooW3JiOCAupwAsLWVbM/VerFWuiCRYhMHtWYN249LwoGz0wAw/K07esFBlVHY0tW/WRLMvCMCyKxONYr9f5Cp7a8VUeEeYHBcBQV0uiaVewwHxqIswrFkWR4zjw9l/alvv93nVd2Jafz4d1mott23TbVYBb67jdbvDL/ng80ksLwjD80y2kD4wp3LZt8++dK54qOWzbhm/RuV6vjb1u27bpab0oiqx/v3waI/+3VNQqmLZt0xW/3+9wL2Oz2cAlr8V/hJ7TFCENdBzHYRj6vp9fWuT8+12v19vtFoYhv3joNOXdaZrmd277vn+73XzfD8OwRFP5XBSm8Pl8aBhd1/U8LwiCHsr8er2CIPA8L79hKjecvj3AqlGmL8JqndEHERgVAijCUZkDCzNHBP4DrVzaM2wxzVwAAAAASUVORK5CYII=;imageBorder=none;fontColor=none;noLabel=1;" vertex="1" parent="1">
                    <mxGeometry x="686" y="218" width="93" height="52.08" as="geometry"/>
                </mxCell>
                <mxCell id="20" value="" style="endArrow=classic;html=1;rounded=0;strokeColor=#000000;" edge="1" parent="1">
                    <mxGeometry width="50" height="50" relative="1" as="geometry">
                        <mxPoint x="168" y="399.5" as="sourcePoint"/>
                        <mxPoint x="256" y="400" as="targetPoint"/>
                        <Array as="points"/>
                    </mxGeometry>
                </mxCell>
                <mxCell id="21" value="" style="shape=image;verticalLabelPosition=bottom;labelBackgroundColor=default;verticalAlign=top;aspect=fixed;imageAspect=0;image=data:image/png,iVBORw0KGgoAAAANSUhEUgAAAR0AAACxCAIAAAB2of4NAAAenklEQVR4Ae1dv2vcyhNXee3BVW78J7hIly5FSncpXAdcpUuTLq915ZcTd2c3dhJIIA4mECcQYvICBsPXJuGBQ4pgEwwmvBQ2mBRn6U466ctozzpZ0szu6nTS6m6NSfZk3Wo1O5+dHzs7Y/j6R1NAUyBvChh5d6j70xTQFPA1rnJlAtfyna7XPfe6577ThV/PzfUBurNqUEDjSn6eXGtwceIe7/YP2v1Pj+3tJfv5bWt93uo0rFbNahmR3xpcXJuzNhfsrcXeuwf9/SfO0dbg7BCAp3+mlwIaV0JzO7g4cY5e9T48BAg1Dfg1DUBRuz5EztocQAv7XZsDdLXr8BUz+G7TsDoN+/W9/v4T9+dnDTOhaajOTRpX6Fx53XPnaKv39j4ggQGpXQd4YODJcJ2JONb/5kJ/b2VwdqhVR3RKqvMHjav4XAGcvj6zX94dYqnTyBNIBPbW5kCaNQ2rXe+9e+D+/Bwfmf5cHQpoXF3Plee6x7v21uLVaqCn5SuXCDil/qldD/RMo//PX4OLk+sh6v8rQwGNK9/rnvf3VsD4McHmKUg6pcIpebFdt5qG/fKue7xbGZ7SA/Vn288+uDjpfXgIqlerphacYgDrNADz6/PO0SvNtJWgwIzKK+/Pr97OMjNmlEZUFGBrc0yianSpD63Zw5Vr9T4+qhiikujaXNCaocromi1cOV82YMlv1ysjo6KIirbX5pjdpb0aaqJrVnA1uDiBLd3ASqk8qEKAdRpW0+jvrajJW7M8qpnAVX9vBbzn5brOQzDk3ggWi8Hvb7PMx6q9+5Tjyrs8nUIxlURmoBZqwaUOuqYZV87RK/BPTKuYSqLLhJ0uHWqoArqmFlfDjakk8033FQg4NCDIUP+USoFpxJXTBd1P8a3eycE70Amdr89K5atZf/i04WpwcQKxSKqFI00ORVjPTaP38dGsc3d57z9VuBqcHc6WQYWBil03DXt7qTzWmuknTw+u3ONdABXNarP211bNfnlXH+gqHuJTgivn+xsNqvQ1pV23n9/W0CoYWtOAK/d4F7Z9Z00Wib9vu26/uKOhVSS0Ko8r9+dnLan4a0q7Dgqh/imKAtXG1eD3Nw0qPqiYZGvVtBujKFhV+Vyj9+cXZBSbnXAKccUPu9PUzveCkFVZeeVasE5rUGEQwq43DefLRkHMNcOPqSqu7K3FaThGhXH/JK9frepAp4kjvpK4gjQvU3aSapJAihtgkFDN0OG5E8VW9XDlnu5rX0UcKrKw7DS0e1DjKkIBp6sl1bigYiA0jf7//o5QVjfzpEDF5JW9vaTNqnxwtT5vNQ19yjhPMEX6qhKudLBSbohiIisodBJhBt3MjQLVwZXWAGWNKJH7TZ12JjcsRTuqDK4gjeYU5CcT4fVi77laNbzL0yhP6Pb4FKgGrgZnhzqyNmclMESv9g2OD6NED9XAFZyr16EVIRJybzQN2ey53uWp+/Oz82Wjv7fS21m2X9+ztxbh3+2l3oeHQVnKV7NclrICuHKOtrRvfVLCikE0WLMSa278gnd5CpXBtpdgOqIVK1nRSpb+oNMAdf26LCVoGZ1G78ND98d7qLY8Mz8VwBVMkhZWucuoWIemgaaacbrO0StQGRiWZHOHsAKwQfVXe3tJVjBWFImq48r5+kwLq8kKq1BkdRqxs4/en1/9T4+HcMplaQsLDn3ZiD2rovjBhq02rjx3WBU7trjqj5OgQFRkOd0JVl1hBYdauITEuLU615XGFWwE6/jaSUAotc9rKwvyBLcKqbVnGtbmwlTGfCiNK2tzQVtWRSiBIcyYslfkWrY2d7UKZZSrI4qERqournTceqGICqFVSsM07Oe3p+noirq4An+urOupFJ7QD82FAiyz/LRUG1IUV173XB+ymiF5xZAZZJZ3T/eFNC21b1IUV/2D9uwWLshl+a9uJ03D/flZbdTwR6corrTHYuaEVWQhmIIMHCriCmqC6EzrET6bRYyZ1Y6yVxFX/f0nWgmcRSxFlxK2meZafJVLyTtUxJVWAmcdVAxg7Xrv7X0lUcMflHK48rrn+qiVxtWQAk0DAuEr+KMcrnTskgbVDQq0jCoeMFEOV713D/R5+xuMFbU6ZrDdrvc+PKycxFIOV9q40qCKUQDc7hcn1YKWWrjSYRYxltIfgQKdRuUcGGrhCorEFRlMPYNqVUVfuVmx7Sy1cKV3rrSASqdAu977+KhCqqBauOq9va9j2NMZq6JyJsdhm0aFju6rhSs4xZhLHoUcp1N3pQgFzCrtZamEK50pWhEOVnMYnUZvZ7kqqqBCuIJ6wTrcVk2eVmRU1VEFFcLV4OxQOwO1cUVRoDqFhRTClfvjvcYVxVWKCI0Sh9GqVaXouEK4ghScLUMzlqYASoHqmFgK4UpvXqH8VKKIUOrRa3PW01uVcF2ohKtPj3XErYYWhwKdhl+Fw44K4ar34aHGFYerlJIepQzGNCqRZlAlXO0s62ALjSsOBZqG9+eX+qqgxtU8ZyJLWZX1QzEKmIZz9Aqg5bkqo0vjSuOqahRgVe2aUDOh9/Z+/6ANqTwVK1qnEq4+PtL2lRaeEhRYmwPDgdWGbBr2izv9g7YiJyCVwNXg97f+3gqcFMakv76uKcClwNocYKxpWE9v9feflOveKBVXrgV7wZsLQItWTYNKUyAfCgQAu1o17O2lwdlhKWZYSbhyuiCgWgYELumDIdyVWNkbmCbGCnVDKbpgfWzVQD1ToRZMp2E1oQJQ8UWNC8eV50JNA7MMAcWYICzbjjWkcM7tUxYSBXco9bLsXUJ1q2nYL+/2dpb7eyvOlw3n6zP4/bLR/9/fvXcP7Nf3AGbZSn3LEo2+PyhTYj+/XaTsKhRXUCruunJzPhKfJmj0r2tz9os7vZ3l3tv71O/OMhR+F+S2tTn7+W2iT+kSXmtz9tYi0aH0eWp6hDvL9su7oi+7Pg9epQBLzpcNQfeAd3nqfH8DGGsaJTulGLq2l4rZ/ioKV67V21kG4gqybBQSubSFjxi4x7uiYfUCeYLglcXHL7DpKZcHjnfGVrQeUqdxtWr0PjwUhFPSpPH+/Op9fASZjMtiADYLwbLeP2gnR5jvlSJwNfjvX1AJ2nUJDhPnRcE7WzXBnUSJXGtrc9bmAj0fEtJvff5qlT8dcjKQt5qAJOEaQqZhby3mssxDpZint0rmhPV5WDef3vIuT+m5G+ev/Ikcp3ff92FFLFFMXa9SUgnoYO4Fl9UmJ1xNQnMLdDYutaWi/gGo5IYp3w3bNHJf3WFpKN39G6iFztdnXIJnu2GyuIKk0FKKkKDwkb3NNJzvb8QJ1P/nL9E11TToup2iilZgvfTePeAOUu70Z7tOdMhPfNCcVKoWkJPl6i+MhZoG5MyYQEjUxHDlWmATK5JkkydVYswH/hXBkfNOsEpYa7yu2CAliu51Gvb2UuzVoh85WVCbEIkXvT/PtmsBrgSVAtllVOr+Vs3aXMh9E3kyuHK6SqjRjL4ZDsM5XdFaQZ0GLWQkYGCK1dX1XNGxtev9vRUCDJQsbdUmnQcTVhwVdJkgT7XVMga/vxG0kv3TBHDldMFnxbWGpRaVcW5u1Wj2SiWZhAOa1LV83xeFgYAzkA1VlLY87Rd1gQRZHFPJErs4uDjpH7Rht+rlXbZD0N9boRXjaA8Sduw4DCDy3cDcyrFeeN64ci21QBU4fzJsCEq4B5o838D6vJDC02kIKvqwYyGybPGcgaiFw/PO+77vdc/t7SVYMlh0BUuoyqJgAykkEuLgHL0S1bdFsDH+PfnZkznjyn5xB52t8V87Ww9N9B2J3RhIuiaopZjG4L9/o8twrA3OGy4MZJRVSn+Lkog8WotuJwQ2T+wVYh/B4WGSGydrc1erfEciOoboWxTbvlqVc3HFKBN+RHkuvEO8oYT/NDYNpO1OmUauBXtusd5SP7YM2l0rBAOZvP5CvhAePFDfTKvW339CTbrnAlkEXA5Qt4pccXzfh4VYoCuhiUidHfmLV6uGiLClSOT7ueEK4mgFfWjyr5qdrHC8dAsjwdUqtftkby3y5Qzzj5MFBYVgIOYMZC/iXZ7yZWmnYb++h7047CvuP0nfRGpyirg5XzZEJ7rTsLcWiTH4vt9T89Bd08hgO0TfNB9cwaaKoNZUJKjW5y3cGeBdntIrEzCQyPYlbz+Xv00UGIHi5r4PspR3rIbnDESdFrjazPhGUFgNl0LeDoe6SSPNsSpu5YCrobZdMGBEHkfGGUGB8KZBuAoHv7+JLhZNg0q+JQIDHP/RVTBs8z1pPGdgOjx4Uk5ojYhOjcnRqYSEebTDwtrMKUpGq4TTkWzkgCu5SNDC6BJoaARsIK1aq0bneRT1wfA8b/wowZZccSd+TjjSm4I6DHhmnnQO/VaNNj6lOyyWf+yXd5OYEbkyLq4UNasY9ckgI7ZgQwQdnudRNLqPJxzAJUiE7azNyc4f1xdCRwYSTgs6AbpcFNX6vMXbPJRQCopEVPgs0+j/85cIkGL3jIUr1YnSRIXASJ8xKQvVOdoSstHb9f6nxzHKRj9yYNCu9xDPBxZzjQKDMQTPGYiOh3Tz+L4PyrOUd6pdp/lSIh4l5PViG2CE//wcnU2R9li4UlcDDIJTiOi40brbqhHx2kKet8DpbD+/TZCbAwPcU4+5vEfrQiqT8cwkVA7zcMV5keRggn0O98d75/ub1F/ULZnsqqwrwflo+lhAcuqz4wrWPKmlq2C6BAkcky/MrvTDXPA8FhTexaLOd3HwiclMz7Vf3MFegfKp8LQvdOJIovm+n0W8sBPiZpDLJPkv17FZMNukPq5dJ9bo1AnKiCswfFUGFfOw4wfXbkha8sgj30PAZoK37UNFCSLOQEBjC50gKoKRFDuo04KZQ/SmsO/zXfyprFn1i02OYzOGLnTaYvfFPnIM8dKJSBoYccYiITHSGOmX4sXUUYEFyJaR+/MzsXNNAZ70T1IuONzSCxkANDfFl1R6prL9NcjnQ7i4QvqwRhZcZVEGsr1M5m+R5nJ8z4RUfuIgxIbE24dFV6IgoU1sVthH58sGhAIhGfCoHVUyMhB1WjBDketZdi2IPFIs+Gi4DY3NTi7XWzXaBxOdxCy4Qq3eXEafSyekhx32BqJe73adChT0/RtKIzY8np0WwCAtSALfMgIowuHC9DgsSuyY1LTS0yeSY2O4sM4gtBCNPYoo1qYmIHk3s1wpUwFju4KvkwEQKcEKnUbqy7KLosfySW5GD+fi0hJUx1YN8+CjLkEy1NjnLhOYE+UmgQBaLJFgwTNb7uPadTi3L/AjjStUnyn3haNPp0VH6llgch1CIRF9KM9TgsIAE62eCx4/MnQ1PSyY1IH5ai0uP+Ps5FoQNVt6YsDYLEz4I2jmFydxUiQ+y+EKZkV9mxXfDvJ9P30HhvY6pEIxOX/0QXrPvaF8hl9HIlND1zyhmKX7Qsjgj/TXDwfDGibnpGaUiwYXJ713D4YHHGdBM+RZDYw4criqwC4eT26kvwIvYCKdg2PsyDu5lKJ/Mr9lWj6gkZDEZWm6gtqkTj0JBenLGOiMjbzuORA2IH768hGjVaU/4jMSrjhyuALFQ/01iUw4kb7twzvrEVRpSPM6RPmD1j9TzxrhkYEjrx1u8KSHWZF5AUCN5x5eDuAhou2EbBQ2Bv/9O1QOTVBii3DTRaegmDZv292XOtcIKoSah6yi1KQlj2theiwdqEo538KnM+ETsliikSIrcFtoZMfiam3KqMijMeC0EOT18U5J+J7rHu/CES+owFR27uhwgnJskD4qOVxRG5E5jnjMrkgjBxgRWxow/wGDh9MVCmhCjCXWR4ptY6Jn+EfOfcKRkDT8SD+HnHncaUDQY9YDSOyVve45rCasxJn6mo4475FsJoMrzxViLPGRTehO0uYeKVfJp/OsIziWz+UMEpwpvjhMxwMYX6uduK4I8ieWaoLcnk6Rb0k6RK8Ewi2XzOzu6T4cQis9o3j07cZp80peiNpX1Eo/zvjy/S65WkOWEiLNf1AjJ6G7jS6kaHHJwdNpKpJrEyLfQmfg0D7BIxjjb0RGBgq9QuylWB7znBLfQqTL2tyUODZM6uSeKK7iMQox6ivykcvW9CZBu04EgAkdNus06H3DuNcEiwyM1QpC4AfpX6Ds5bVkY8kS8bytookHk7NpQgm5fDLChhWbkk+p1hVSFRTFVYqPWEEqkBG0fGCQ4aqgdIlkPsMj0OPph3D/YVxfxdXL2EFD2vsystkyzF1QAst+fS8XdIHkxAzdDGMr5SuE3SvoD5Szd0t5SfbQVm2ktyVaVKAq+zruRWCd0ZF1Q52NdHPfGAPuuowLFlwOxxcLwk+VdHJkmKnrir1Qn2U8lwaQotLQIl2vQvIqxZGVYUom/RVy/QBZ8fY+x8vM0+KE8h5jrogAmjc8B7gtlPRGoFUInO6IO8nIwBuPHnMu1uYs02AF5yGFJZ4gJLG43bgAO11RJXbMURX/dfzcgBCusti7ZbwknaZUSIsj1nvB07L4dhOkNf/zawQDLDAiWTGEXBpH74XvhkFqCsF0iFITd30WuLezDPkP0wJHbiAp8SG+gkg9vfSbcf1cCFdV2bkiNBPRM2O8EJURE2OTyosfi+IqtexS+lBxl+BIDpORgaONZmzk41xnAGsFNYiRA2MJTMGF+Fm4ccZQ/HfxNVQIV3EvVvEvwH0iuckDq7Vg6Qo6ANf3+dzJC4kaEhMPzkhntSaafnXkEsQEYMDRYzktuPQPb2jXYeF4egs7jplEV4VFFm56COGKY5aENC2xgVv2bCKHRWWSeUtuXmFV35NzH16J+d+GvorYi5Onv4YZyfHtsvTIYNyrO8oUgKv7RXuegnoiqE0YUjNoxJ2fMWKq/BHfHRbDlfp+G9LDDtPndCV+b0589NMNAwmbctJfP5SceGDESK+L9o8vHNHTu9GhRtuD//7FAiPTl4boozO3TUOkXHq63pv5oUV+EddNBHDlWqofEGZBolE+mmSbr1Dhjj44cH12CCyO20LpW4VEwVWnCx2SsSY3/PtFcp5pYCkQR1OEnUwrcpzZnoUr8wK4inpysz1+0t8SyCI0msWxW6Pcg9h74Wo3q3QIFgiWP52BJNkzvjTChvXTW3BiH894zDcLk0/M6QqRUiqcCqHjbTmNJ2f5jGRw4OMqJVpUtTfkFa0I5y+XRrpfIUoTuvhiUJcNC4wglCL4CuLIhn1kPMNMSnhudLTRNgvea9VgWyn2265nNLN5Ac1CW4vRQSrVRg77TQWu8PC5XIAU70QkcKFFBWUyl2C82+AzBVrchuzvPyEyovkiAw7Lr3huuiHqWhnDA0hJy4iQfvBZKfxgg5laeYXn30tl3FwupptAUdLjGIBg2U+PsUKGI6d5tDfWJlyCQQZPbPtO1GnBOwabPWKDjO0aRg9HM88l313ZK1OLK7JwQS4oSnZCcf81BiCCDvlxvmxgtlC6M5D1iStUTHtEnuaLOi1wFyXrWRSfSQzwdtuBnhXFVWY90Ffcb0E6tTFWG/M6XyMiQ4rc032s2hrFXmT4IlHQRDRcBo8DHuLq4mQULJIED3GFN0d8VxDRebl/yiyvoJqtsvtXAh723rsH9tai3O/LuxjfDwGJee3COSa93t6fX+nhCHS3ZJRg/39/Y4sFv1okGzYZtgudC9ppIRHCBg9XlJQOO1GwMZaf3ffV3b/iBePBosASA7GU4oL/tuuY/RPyLj+2iwzhlYgMjPITnmUATZ8krm7QbszgzbPFHHFd7VX1s+MU4/sDwUsrmMQnygHFtHnhfGBqZxO2ZCwSmNoHbc4ZBzyiLwRnrMEPkiLdIbHe2EcwisQp0GlgrnzWG+yDyTIDvqgPB+y5/MQhxbCT7FNwCS+EK2WXE+5CmB5rJ0I+8hgVhE1w+VV+V40/Wt46koSWaMAxowlvLaC2ATCqkrvk8bMzWCdqXscDEoRwJWr4FvzyAhsjoqZFcuS48y3kXU7EHc9tHfYTNiDhHi0N5PuUmzsyAouNE2RLIIIEAxdg7fvzK3zHZIMvpZOzo8gVPGhTCFcTORI3Pmm4rC9uWiQHwzt4AtmdaBjg6SuSvDVk2c0FDsviAdRon7FEaMk3jV7BFZuwf/d0X8LeNo3+3kr43dRGVZ0WQZYerKS3EK74Ok90bgpr87xMoxTn2YbU4qT/5+wLce2KGJcJxjeTeWliXcIeCZ2CKkEZLMAq2nP/oA3Q4kqtpkFnp4I+x1n7EoMXFKG53YYfzBHCVYbpyW3oBO14Rva40TFcE4u7n8PbD40yazwDDPLiInwfdivY543JwnWbsNvhOV92RjipuLK6WE2jf9COfiW1zXf/IHS4MeZS7iHXTTFc+T5ke01SsJT3YQ8lN0nZFPKjjejxc/VM3+dIAzzyKMlko+OJ9Kh4Ujras5zTInwub8EaPsJzne9vQIsLcsiA17EZJJN5cad/0E7dSIiODdquxc9rEI5KtQa5jS6KK9B5JDWKya4o+PklNnle91zCDEidMwETi3P+QibGSjSWh/fiUd6Vc1qERCCPnET7H7XDaN3RJX6LQ71wPGo2mgakykF+RHEldE62wPfnethFl39yzMTRDEZPji9Lxs0QzwiNDUzGJZh9g6SJ1gtHGEn6MpBOfGMNo0aJ19t1Yq9PFFfg/lJHFRTwsGdcqmPzxDOx+MuNsJsBxDvXE7A+D+eCX98T4uIxA9BMjn9caAzITXJOxdikqPCRtykngatcJEA+yqGI5SPIpvQkiTyIdo6LnQ2TyOtCRglG2TiL0yJKjcD9gIZHRZ8k2a68pGJ19/A8+DJ1egLaqWJlkgm9YAv/8jQfHUPExPr4iApC50k8xpNyGOAdZ2J9pldzjCKH22bFRPADL5KAAkcF2FSVVv+C9Zo4PcBoIiGvYLPhy4YS3gsyDzuM82grt3GS5VjAp/XzM/UsMbc1x06LAcA0RIoPDBOqxb6b4WMuxUScLrjUTYNagzKMrZSvNA1sOzhcaORwpYRjNDCu3J+f3R/v03+Pd4VqwAlOSeDTS39QMABOMEpgDrnHu0QP7vFuvNABPbbgcBfV4Y/3EMhHK6j0I2J/ZeUOthbdH++xU8khS91oBKf3wdZtBQVRY91W8SMewx59cUlcKSKygrz7sPhhvyIOAPFJbdXQB5kGJ6o98DRQX2evILs32K7z+8yXCNcvAuUOnt/uf3rsHG25x7uD39+8y1Pvzy/v8nRwcTI4O3R/vHe+Put9eGg/vw1bHdMho0JuId3rIbSkcTU8NpL7nIXj1g31KcDSNrEVIdgOZpvC8C+72Ar0veljkk7Dfnk3BA/RyIIrsCiqbnqqz7t6hApSgHeOJkRaFlwNQ7krmuhDwdnSQ6oEBQRi88fFFUTiihQFrQS99CA1BbgUEN42ZNDKKK+GEc1aG+TOh75hOiggmQEhO65YfkmwU6eDcPotNAUwCkCO7lehjifSGAtXYGi9vDsNO30YQfV1TYFWrffugQiWoveMiyswtCQTHmj5pilQGQq06/aLO1HACLbHxhULxjMFTmXrlU9ToFoUCDbr5eJLrmGXA64g6dfvb3pHqzJrcLWYu6zRrs1ZnYbQqedrLEX/zwdXo3x607fFXta86ueWSIHgjAydni2KomQ7N1wNoaUVwhK5QT86Fwp0Gtba3Digkj5/lcRl7AoUjGlBrVutFGkKVJIC7bq1uZBZ/QvhkKe8Yp3C0dfNBe18ryRX5bLeV7cT04B6F64VwiNzI39cwVA8F3LB6i3j6nLYDI68afQ+PsoMpNgXJ4Or4CGiWVFncAr1KytFgdzTDfj+BHE19L+vz/NP/ilFZT2YmaKACcc0x/RSxIRV/n6L5AMgVciHh7C7pV3wM8Wv6r9sp3G1yi/LkMLSApcmK6/CAUB9t6D+grbmNQXKp0Cg+Nkv7kwiixvj+YJwxR42TOfUqpVPWfVXUz3CCVEgyLfh5Ji8LZQekUahuAJPYfccynw0pyLf1YQmXnc7IQoE+X+gyonnRiAwkWbRuGIvMUQXS2ak7a4JsZHullGAZe9iqYvz2JsSAWI5uBqOjOVqxMooabbQFBiTAu06CweHU4lFIYrxdqm4uga++/MzK6MEW8k6BmpMZtJfZ8kVW0bvw8PB2eE1lxX6vxK4Gr6x03W+vxkGamgVUcNDigKdBmyTNiGrbm9n2T3eLVhAxVCrEq7CobnW4Oywv/8EDvmbUAUQ/m3VQJRpY0yK26b15uBwFLDENXvYW4v9g/bgv38L8EmEfEo0lMRVdLyeO/j9zfn+pr+3ApXXNhcAXYyaYXZVLJu0vj5NFGCJddlBpKe37O2l/v4T5/ubye1BRdlQtq08rpIv5Fpe99z782vw+xtkAz/dhxoI+neKKXC6Pzg7hETw3XM4wTF5L3mS6WSvVBBXsq+o79cUKJwCGleFk1w/cAYooHE1A5OsX7FwCmhcFU5y/cAZoIDG1QxMsn7FwimgcVU4yfUDZ4ACGlczMMn6FQunwP8BdPWNPDTB6BcAAAAASUVORK5CYII=;imageBorder=#000000;" vertex="1" parent="1">
                    <mxGeometry x="209" y="152" width="49.92" height="31" as="geometry"/>
                </mxCell>
                <mxCell id="22" value="&lt;font color=&quot;#000000&quot;&gt;aws cloud&lt;/font&gt;" style="text;html=1;align=center;verticalAlign=middle;whiteSpace=wrap;rounded=0;" vertex="1" parent="1">
                    <mxGeometry x="259" y="152" width="60" height="30" as="geometry"/>
                </mxCell>
            </root>
        </mxGraphModel>
    </diagram>
</mxfile>